<?xml version="1.0" standalone="no"?>
<!DOCTYPE svg PUBLIC "-//W3C//DTD SVG 20010904//EN"
 "http://www.w3.org/TR/2001/REC-SVG-20010904/DTD/svg10.dtd">
<svg version="1.0" xmlns="http://www.w3.org/2000/svg"
 width="1274.000000pt" height="414.000000pt" viewBox="0 0 1274.000000 414.000000"
 preserveAspectRatio="xMidYMid meet">

<g transform="translate(0.000000,414.000000) scale(0.100000,-0.100000)"
fill="#000000" stroke="none">
<path d="M0 2070 l0 -2070 765 0 765 0 0 25 c0 16 6 25 15 25 8 0 15 -4 15
-10 0 -5 -4 -10 -10 -10 -5 0 -10 -7 -10 -15 0 -13 63 -15 505 -15 467 0 504
1 498 17 -5 13 -2 15 11 10 10 -4 20 -7 22 -7 3 0 2 -4 -1 -10 -4 -6 13 -10
44 -10 41 0 49 3 45 15 -8 20 23 20 42 0 14 -13 570 -15 4909 -15 4331 0 4894
2 4905 15 14 16 50 21 50 6 0 -5 -8 -12 -17 -14 -10 -3 1 -5 25 -6 23 0 52 5
63 12 17 9 23 9 26 0 7 -19 60 -16 67 3 11 28 7 456 -4 449 -5 -3 -10 -24 -10
-46 0 -47 -15 -44 -23 3 -6 40 8 69 28 62 13 -5 15 210 15 1825 l0 1831 -6370
0 -6370 0 0 -2070z m5410 2030 c0 -14 -7 -20 -22 -20 -21 0 -21 0 -2 19 24 25
24 25 24 1z m74 12 c2 -4 -4 -13 -15 -20 -16 -11 -19 -9 -19 8 0 19 24 28 34
12z m706 -28 c-13 -15 -15 -14 -21 3 -7 20 11 37 25 23 6 -6 4 -16 -4 -26z
m73 29 c-7 -2 -19 -2 -25 0 -7 3 -2 5 12 5 14 0 19 -2 13 -5z m-140 -53 c-3
-11 -9 -23 -14 -26 -10 -6 -12 39 -3 49 12 12 22 -3 17 -23z m-786 4 c-3 -3
-12 -4 -19 -1 -8 3 -5 6 6 6 11 1 17 -2 13 -5z m-159 -45 c2 -19 -2 -28 -8
-24 -5 3 -10 1 -10 -6 0 -9 -5 -8 -17 3 -20 16 -49 17 -46 2 1 -6 -4 -11 -11
-11 -7 0 -13 6 -13 13 0 7 5 10 10 7 6 -4 8 1 4 12 -6 14 -4 16 15 10 47 -14
70 -14 64 0 -4 10 1 25 9 25 0 0 2 -14 3 -31z m786 22 c3 -5 -3 -11 -14 -14
-13 -3 -20 0 -20 9 0 15 26 19 34 5z m-74 -5 c0 -3 -4 -8 -10 -11 -5 -3 -10
-1 -10 4 0 6 5 11 10 11 6 0 10 -2 10 -4z m25 -6 c3 -5 1 -10 -4 -10 -6 0 -11
5 -11 10 0 6 2 10 4 10 3 0 8 -4 11 -10z m-955 -20 c0 -5 -2 -10 -4 -10 -3 0
-8 5 -11 10 -3 6 -1 10 4 10 6 0 11 -4 11 -10z m6038 -12 c-2 -13 -11 -24 -20
-26 -21 -4 -24 18 -6 36 19 19 30 14 26 -10z m-10967 -41 c-8 -8 -11 -4 -11
14 0 33 14 47 18 19 2 -12 -1 -27 -7 -33z m6669 43 c0 -5 -4 -10 -10 -10 -5 0
-10 5 -10 10 0 6 5 10 10 10 6 0 10 -4 10 -10z m-1645 -40 c3 -5 -1 -10 -9
-10 -8 0 -18 5 -21 10 -3 6 1 10 9 10 8 0 18 -4 21 -10z m809 -101 c0 -23 4
-36 12 -36 10 0 11 4 3 13 -6 8 -6 14 0 18 16 10 18 -4 20 -159 2 -82 4 -152
7 -156 8 -14 -36 4 -48 19 -11 13 -11 14 1 7 11 -6 12 -5 5 6 -11 18 -12 68
-2 97 6 17 5 21 -5 16 -9 -5 -9 -4 0 6 10 11 10 17 0 29 -6 8 -7 12 -2 9 7 -4
11 6 11 26 0 19 -5 33 -13 33 -7 0 -10 -4 -7 -8 2 -4 1 -10 -4 -13 -4 -2 -7
-23 -6 -45 0 -24 -4 -39 -10 -38 -6 1 -10 -3 -9 -9 1 -6 -4 -11 -12 -11 -8 0
-11 5 -7 11 8 14 12 33 15 76 2 19 7 41 11 49 6 9 5 12 0 8 -6 -3 -10 5 -10
18 0 13 4 21 8 19 4 -3 9 6 9 20 2 33 6 65 9 71 1 3 4 10 5 15 1 6 4 13 5 18
5 12 16 -71 14 -109z m-5654 96 c0 -2 -5 -16 -12 -30 -12 -28 -28 -33 -28 -10
0 8 4 15 10 15 5 0 7 7 4 15 -4 9 0 15 10 15 9 0 16 -2 16 -5z m6105 -27 c-3
-40 -16 -43 -26 -6 -7 28 -3 38 17 38 7 0 11 -12 9 -32z m4891 25 c-11 -11
-35 -12 -42 -2 -3 5 7 9 22 9 15 0 24 -3 20 -7z m94 -7 c0 -2 -7 -7 -16 -10
-8 -3 -12 -2 -9 4 6 10 25 14 25 6z m100 -10 c0 -18 -26 -40 -34 -27 -9 14 4
41 20 41 8 0 14 -6 14 -14z m-11040 -12 c0 -10 -31 -36 -37 -31 -10 10 6 37
22 37 8 0 15 -3 15 -6z m10745 -3 c3 -5 1 -12 -5 -16 -5 -3 -10 1 -10 9 0 18
6 21 15 7z m-10466 -53 c-11 -19 -14 -20 -17 -6 -2 9 2 27 9 40 11 19 14 20
17 6 2 -9 -2 -27 -9 -40z m91 32 c0 -5 -2 -10 -4 -10 -3 0 -8 5 -11 10 -3 6
-1 10 4 10 6 0 11 -4 11 -10z m5360 -15 c0 -8 -4 -17 -10 -20 -6 -4 -10 5 -10
20 0 15 4 24 10 20 6 -3 10 -12 10 -20z m87 -11 c-9 -9 -28 6 -21 18 4 6 10 6
17 -1 6 -6 8 -13 4 -17z m5123 4 c0 -4 -7 -8 -15 -8 -8 0 -15 4 -15 8 0 5 7 9
15 9 8 0 15 -4 15 -9z m419 -27 c-1 -13 -2 -12 -6 2 -3 13 -11 17 -24 14 -17
-5 -18 -3 -8 9 14 17 40 1 38 -25z m-319 19 c0 -5 -7 -10 -16 -10 -8 0 -12 5
-9 10 3 6 10 10 16 10 5 0 9 -4 9 -10z m-10595 -10 c3 -5 1 -10 -4 -10 -6 0
-11 5 -11 10 0 6 2 10 4 10 3 0 8 -4 11 -10z m10695 -1 c0 -10 -22 -17 -38
-11 -10 3 -10 7 -2 12 14 9 40 9 40 -1z m-5724 -36 c-5 -12 -10 -13 -17 -6 -8
8 -7 16 2 26 16 17 24 5 15 -20z m-471 17 c3 -5 1 -10 -4 -10 -6 0 -11 5 -11
10 0 6 2 10 4 10 3 0 8 -4 11 -10z m6615 -11 c0 -18 -2 -19 -15 -9 -8 7 -15
16 -15 21 0 5 7 9 15 9 9 0 15 -9 15 -21z m74 12 c3 -5 -1 -11 -9 -15 -9 -3
-15 0 -15 9 0 16 16 20 24 6z m139 -23 c6 -40 1 -47 -18 -27 -9 8 -12 23 -9
37 9 32 21 27 27 -10z m-11403 12 c-19 -13 -30 -13 -30 0 0 6 10 10 23 10 18
0 19 -2 7 -10z m66 -27 c-11 -11 -19 6 -11 24 8 17 8 17 12 0 3 -10 2 -21 -1
-24z m153 20 c-7 -10 -15 -20 -16 -22 -2 -2 -3 5 -3 17 0 14 6 22 16 22 14 0
15 -3 3 -17z m11348 -5 c-3 -8 -6 -5 -6 6 -1 11 2 17 5 13 3 -3 4 -12 1 -19z
m-11107 -3 c-7 -9 -15 -13 -19 -10 -3 3 1 10 9 15 21 14 24 12 10 -5z m10690
-1 c0 -8 -5 -12 -10 -9 -6 4 -8 11 -5 16 9 14 15 11 15 -7z m-6160 -4 c0 -5
-9 -10 -20 -10 -11 0 -20 5 -20 10 0 6 9 10 20 10 11 0 20 -4 20 -10z m-4450
-5 c0 -2 -10 -10 -22 -16 -21 -11 -22 -11 -9 4 13 16 31 23 31 12z m10750 -15
c0 -5 -5 -10 -11 -10 -5 0 -7 5 -4 10 3 6 8 10 11 10 2 0 4 -4 4 -10z m-10680
-4 c0 -11 -19 -15 -25 -6 -3 5 1 10 9 10 9 0 16 -2 16 -4z m80 -6 c0 -5 -5
-10 -11 -10 -5 0 -7 5 -4 10 3 6 8 10 11 10 2 0 4 -4 4 -10z m-1029 -27 c-8
-15 -10 -15 -11 -2 0 17 10 32 18 25 2 -3 -1 -13 -7 -23z m88 -30 c1 -16 -5
-23 -16 -22 -10 0 -13 3 -6 5 7 3 10 19 7 42 -3 29 -2 32 5 17 5 -11 10 -30
10 -42z m5001 31 c0 -8 -7 -14 -15 -14 -15 0 -21 21 -9 33 10 9 24 -2 24 -19z
m48 -13 c-15 -5 -21 7 -13 26 7 17 8 17 15 -2 4 -11 3 -22 -2 -24z m-5203 19
c3 -5 -1 -10 -10 -10 -9 0 -13 5 -10 10 3 6 8 10 10 10 2 0 7 -4 10 -10z
m5172 -12 c-3 -8 -6 -5 -6 6 -1 11 2 17 5 13 3 -3 4 -12 1 -19z m6891 -18 c3
-34 -13 -38 -32 -8 -7 12 -6 21 3 32 18 21 26 14 29 -24z m32 30 c0 -5 -5 -10
-11 -10 -5 0 -7 5 -4 10 3 6 8 10 11 10 2 0 4 -4 4 -10z m-7090 -4 c0 -3 -4
-8 -10 -11 -5 -3 -10 -1 -10 4 0 6 5 11 10 11 6 0 10 -2 10 -4z m6877 -18 c-3
-8 -6 -5 -6 6 -1 11 2 17 5 13 3 -3 4 -12 1 -19z m432 6 c2 -2 -1 -16 -8 -30
-6 -14 -8 -31 -4 -37 25 -40 -11 -65 -60 -42 -16 7 -18 15 -12 54 9 59 21 74
54 66 14 -4 28 -8 30 -11z m-12079 -10 c0 -8 -5 -12 -10 -9 -6 4 -8 11 -5 16
9 14 15 11 15 -7z m80 2 c0 -8 -4 -18 -10 -21 -5 -3 -10 3 -10 14 0 12 5 21
10 21 6 0 10 -6 10 -14z m775 -5 c-3 -6 -11 -11 -17 -11 -6 0 -6 6 2 15 14 17
26 13 15 -4z m132 -30 c-15 -6 -30 17 -23 35 6 16 8 16 20 -6 6 -14 8 -27 3
-29z m-1223 24 c3 -8 -3 -19 -14 -25 -22 -12 -33 0 -24 24 8 20 30 21 38 1z
m1452 -23 c-14 -14 -16 -14 -16 -1 0 20 23 44 29 28 2 -6 -4 -18 -13 -27z
m10537 23 c-4 -15 -36 -12 -41 3 -3 9 3 13 19 10 13 -1 23 -7 22 -13z m-10593
-6 c0 -7 -10 -9 -25 -7 -13 3 -22 2 -20 -3 3 -4 1 -10 -5 -14 -10 -6 -15 17
-6 26 10 10 56 8 56 -2z m10978 -21 c-4 -40 -24 -47 -31 -11 -6 33 -1 43 19
43 11 0 14 -9 12 -32z m-11908 13 c0 -5 -9 -19 -20 -32 -19 -23 -19 -23 -20
-3 0 20 17 44 32 44 4 0 8 -4 8 -9z m1101 -24 c7 -25 6 -27 -8 -15 -13 10 -17
10 -20 1 -9 -24 -23 -13 -23 18 0 26 3 30 22 27 14 -2 24 -13 29 -31z m3534 5
c-8 -8 -25 10 -19 20 4 6 9 5 15 -3 4 -7 6 -15 4 -17z m-3780 2 c0 -5 -8 -10
-17 -12 -11 -2 -18 3 -18 11 0 9 8 14 18 13 9 -2 17 -7 17 -12z m385 9 c-1
-19 -19 -35 -30 -28 -10 6 -9 11 5 22 22 15 25 16 25 6z m-1090 -27 c0 -14
-21 -58 -26 -54 -8 8 7 58 17 58 5 0 9 -2 9 -4z m136 -54 c-11 -10 -15 4 -8
28 l7 25 3 -23 c2 -13 1 -26 -2 -30z m-216 18 c0 -4 -7 -10 -15 -14 -10 -4
-15 1 -15 14 0 13 5 18 15 14 8 -4 15 -10 15 -14z m295 10 c-3 -5 -11 -10 -16
-10 -6 0 -7 5 -4 10 3 6 11 10 16 10 6 0 7 -4 4 -10z m140 -20 c3 -5 -1 -10
-10 -10 -9 0 -13 5 -10 10 3 6 8 10 10 10 2 0 7 -4 10 -10z m4285 -16 c0 -8
-4 -12 -10 -9 -5 3 -10 13 -10 21 0 8 5 12 10 9 6 -3 10 -13 10 -21z m-4580 7
c0 -5 -7 -12 -16 -15 -14 -5 -15 -4 -4 9 14 17 20 19 20 6z m386 -47 l-15 -29
-1 31 c0 34 9 49 23 35 5 -5 3 -20 -7 -37z m74 21 c0 -8 -7 -15 -15 -15 -9 0
-12 6 -9 15 4 8 10 15 15 15 5 0 9 -7 9 -15z m17 -7 c-3 -8 -6 -5 -6 6 -1 11
2 17 5 13 3 -3 4 -12 1 -19z m4044 9 c-1 -12 -15 -9 -19 4 -3 6 1 10 8 8 6 -3
11 -8 11 -12z m-4016 -16 c3 -5 1 -12 -5 -16 -5 -3 -10 1 -10 9 0 18 6 21 15
7z m28 -23 c-10 -11 -19 -15 -21 -8 -5 15 18 41 30 34 5 -3 1 -15 -9 -26z
m1323 6 c-3 -9 -6 -20 -6 -25 0 -6 -4 -8 -9 -5 -12 8 -2 46 11 46 6 0 7 -7 4
-16z m2624 -15 c0 -4 -7 -12 -15 -19 -20 -17 -36 -2 -29 27 5 19 9 20 25 10
10 -6 19 -15 19 -18z m-90 0 c0 -27 -28 -35 -48 -15 -19 19 -9 30 28 33 14 1
20 -4 20 -18z m1501 -9 c6 -16 15 -30 20 -30 5 0 9 -13 9 -30 0 -34 -15 -40
-23 -9 -4 13 -10 18 -18 13 -7 -4 -10 -3 -5 4 3 6 2 13 -3 16 -5 4 -8 14 -6
24 2 9 4 23 4 30 2 21 12 13 22 -18z m-6061 -10 c0 -5 -4 -10 -10 -10 -5 0
-10 5 -10 10 0 6 5 10 10 10 6 0 10 -4 10 -10z m2185 -15 c0 -10 -5 -20 -11
-22 -7 -2 -11 7 -11 22 0 15 4 24 11 22 6 -2 11 -12 11 -22z m145 -12 c0 -19
-3 -24 -10 -17 -6 6 -8 18 -4 27 9 24 14 21 14 -10z m-2243 -8 c0 -6 -6 -12
-12 -12 -6 0 -12 6 -12 12 0 6 6 12 12 12 6 0 12 -6 12 -12z m2018 5 c-3 -5
-10 -10 -16 -10 -5 0 -9 5 -9 10 0 6 7 10 16 10 8 0 12 -4 9 -10z m140 -29
c-3 -6 -11 -11 -17 -11 -6 0 -6 6 2 15 14 17 26 13 15 -4z m-2015 0 c0 -14
-18 -23 -30 -16 -6 4 -8 11 -5 16 8 12 35 12 35 0z m231 -18 c13 -16 12 -17
-3 -4 -17 13 -22 21 -14 21 2 0 10 -8 17 -17z m4674 8 c3 -5 1 -12 -5 -16 -5
-3 -10 1 -10 9 0 18 6 21 15 7z m355 5 c0 -2 -6 -9 -13 -15 -10 -8 -14 -7 -14
4 0 8 6 15 14 15 7 0 13 -2 13 -4z m5105 -17 c-4 -5 -13 -9 -22 -9 -13 0 -13
3 -3 15 13 15 35 11 25 -6z m-10225 -4 c0 -8 -4 -15 -9 -15 -13 0 -22 16 -14
24 11 11 23 6 23 -9z m-75 -5 c3 -5 1 -10 -4 -10 -6 0 -11 5 -11 10 0 6 2 10
4 10 3 0 8 -4 11 -10z m323 -2 c-2 -6 -10 -14 -16 -16 -7 -2 -10 2 -6 12 7 18
28 22 22 4z m4862 -24 c7 -7 6 -11 -4 -11 -8 0 -12 5 -9 10 3 6 1 7 -6 3 -9
-6 -9 -12 1 -24 7 -10 8 -14 4 -10 -5 4 -15 3 -21 -2 -9 -7 -11 -3 -9 18 1 15
2 28 3 29 3 5 33 -5 41 -13z m5633 -16 c-5 -26 -33 -41 -33 -18 0 8 32 48 37
46 1 -1 -1 -13 -4 -28z m-10581 -10 c-15 -15 -24 -6 -16 16 5 12 10 14 17 7 8
-8 8 -14 -1 -23z m155 25 c-13 -3 -17 -11 -14 -24 3 -10 2 -21 -2 -24 -8 -5
-12 22 -5 43 2 6 11 11 21 11 17 -1 17 -2 0 -6z m9813 -3 c0 -5 -4 -10 -10
-10 -5 0 -10 5 -10 10 0 6 5 10 10 10 6 0 10 -4 10 -10z m310 0 c0 -5 -2 -10
-4 -10 -3 0 -8 5 -11 10 -3 6 -1 10 4 10 6 0 11 -4 11 -10z m-4686 -47 c-1
-16 -2 -30 -3 -32 -1 -2 -10 4 -21 14 -23 21 -25 36 -8 53 17 17 35 -3 32 -35z
m4476 33 c0 -3 -4 -8 -10 -11 -5 -3 -10 -1 -10 4 0 6 5 11 10 11 6 0 10 -2 10
-4z m-9990 -16 c0 -5 -5 -10 -11 -10 -5 0 -7 5 -4 10 3 6 8 10 11 10 2 0 4 -4
4 -10z m452 -65 c-8 -13 -20 45 -13 65 3 9 8 1 12 -20 4 -19 4 -39 1 -45z
m9633 65 c-3 -5 -10 -10 -16 -10 -5 0 -9 5 -9 10 0 6 7 10 16 10 8 0 12 -4 9
-10z m115 -5 c0 -9 -9 -15 -24 -15 -35 0 -42 18 -9 23 16 2 29 5 31 6 1 0 2
-6 2 -14z m-9900 -9 c0 -11 -19 -15 -25 -6 -3 5 1 10 9 10 9 0 16 -2 16 -4z
m305 -5 c3 -5 1 -12 -5 -16 -5 -3 -10 1 -10 9 0 18 6 21 15 7z m9695 -3 c0 -4
-9 -8 -19 -8 -11 0 -22 4 -25 8 -2 4 6 8 20 8 13 0 24 -4 24 -8z m366 -33 c-9
-9 -16 -13 -16 -8 0 12 22 34 28 28 2 -2 -3 -11 -12 -20z m-11206 0 c0 -2 -7
-8 -15 -15 -12 -10 -15 -10 -15 2 0 8 7 15 15 15 8 0 15 -1 15 -2z m1380 -7
c0 -4 -4 -8 -9 -8 -6 0 -12 4 -15 8 -3 5 1 9 9 9 8 0 15 -4 15 -9z m9761 3 c5
8 9 9 9 3 0 -31 -52 -36 -58 -6 -2 10 2 10 19 1 17 -9 23 -8 30 2z m308 -8
c-13 -15 -39 -18 -39 -4 0 10 17 18 37 18 9 0 10 -4 2 -14z m-11629 -3 c0 -5
-2 -10 -4 -10 -3 0 -8 5 -11 10 -3 6 -1 10 4 10 6 0 11 -4 11 -10z m392 -8
c-7 -2 -12 -10 -12 -18 0 -8 -4 -14 -10 -14 -11 0 -14 33 -4 43 3 3 13 3 22
-1 10 -4 12 -7 4 -10z m-152 -2 c0 -5 -7 -10 -16 -10 -8 0 -12 5 -9 10 3 6 10
10 16 10 5 0 9 -4 9 -10z m11251 -7 c13 -16 12 -17 -3 -4 -10 7 -18 15 -18 17
0 8 8 3 21 -13z m-9781 -6 c0 -21 -12 -28 -27 -16 -19 16 -16 29 7 29 11 0 20
-6 20 -13z m3894 7 c13 -5 14 -9 5 -20 -9 -11 -15 -11 -25 -3 -8 6 -11 15 -8
20 6 11 8 11 28 3z m6216 -5 c0 -5 -4 -7 -10 -4 -5 3 -10 1 -10 -6 0 -7 -3
-10 -6 -6 -8 7 4 27 17 27 5 0 9 -5 9 -11z m-10346 -30 c-8 -13 -24 -1 -24 18
0 13 3 13 15 3 8 -7 12 -16 9 -21z m4936 21 c0 -5 -5 -12 -10 -15 -6 -4 -7
-12 -3 -18 3 -7 -3 -4 -15 7 -12 10 -20 22 -18 25 7 10 46 11 46 1z m-5720
-10 c0 -5 -4 -10 -10 -10 -5 0 -10 5 -10 10 0 6 5 10 10 10 6 0 10 -4 10 -10z
m862 -12 c-6 -6 -15 -8 -19 -4 -4 4 -1 11 7 16 19 12 27 3 12 -12z m233 12
c-3 -5 -10 -10 -16 -10 -5 0 -9 5 -9 10 0 6 7 10 16 10 8 0 12 -4 9 -10z
m-945 -16 c0 -8 -4 -12 -10 -9 -5 3 -10 10 -10 16 0 5 5 9 10 9 6 0 10 -7 10
-16z m5651 -10 c5 -15 12 -24 16 -21 3 4 12 -5 19 -19 23 -43 8 -85 -28 -79
-29 6 -33 12 -18 30 10 12 10 15 -3 15 -11 0 -14 10 -11 48 4 57 3 52 9 52 3
0 10 -12 16 -26z m5139 5 c0 -5 -4 -9 -10 -9 -5 0 -10 7 -10 16 0 8 5 12 10 9
6 -3 10 -10 10 -16z m-9754 -11 c-3 -26 -30 -36 -42 -16 -17 27 -12 38 17 38
24 0 28 -4 25 -22z m64 -14 c0 -23 -24 -43 -37 -31 -8 8 20 66 29 61 4 -3 8
-16 8 -30z m9780 21 c0 -8 -7 -15 -15 -15 -16 0 -20 12 -8 23 11 12 23 8 23
-8z m-10720 -27 c0 -5 -4 -8 -10 -8 -5 0 -10 10 -10 23 0 18 2 19 10 7 5 -8
10 -18 10 -22z m770 22 c0 -5 -2 -10 -4 -10 -3 0 -8 5 -11 10 -3 6 -1 10 4 10
6 0 11 -4 11 -10z m10040 -5 c10 -12 10 -15 -2 -15 -8 0 -15 7 -15 15 0 8 1
15 2 15 2 0 8 -7 15 -15z m-10738 -27 c-15 -15 -26 -4 -18 18 5 13 9 15 18 6
9 -9 9 -15 0 -24z m1012 17 c3 -9 0 -15 -9 -15 -16 0 -27 14 -18 24 10 10 21
7 27 -9z m84 -2 c-4 -22 -22 -20 -26 1 -2 10 3 16 13 16 10 0 15 -7 13 -17z
m-1403 -3 c3 -5 1 -10 -4 -10 -6 0 -11 5 -11 10 0 6 2 10 4 10 3 0 8 -4 11
-10z m1499 -30 c16 -34 13 -39 -28 -34 -36 4 -42 10 -26 29 7 8 9 15 5 15 -4
0 -2 7 5 15 15 18 25 13 44 -25z m-2201 11 c-7 -27 -33 -36 -33 -11 0 10 8 21
18 23 9 3 18 5 19 6 0 0 -1 -8 -4 -18z m2257 -5 c0 -12 -10 -14 -38 -7 -2 1 0
6 3 11 9 15 35 12 35 -4z m-231 -22 c-6 -7 -15 -11 -21 -8 -5 3 -4 12 3 20 6
7 15 11 21 8 5 -3 4 -12 -3 -20z m-854 6 c-3 -5 -13 -10 -21 -10 -8 0 -14 5
-14 10 0 6 9 10 21 10 11 0 17 -4 14 -10z m225 -12 c0 -16 -3 -19 -11 -11 -6
6 -8 16 -5 22 11 17 16 13 16 -11z m9524 1 c-3 -5 -9 -7 -14 -4 -5 3 -11 1
-15 -5 -4 -6 -11 -8 -16 -4 -17 10 10 32 31 27 11 -3 17 -9 14 -14z m-10854
-3 c0 -8 -4 -18 -10 -21 -5 -3 -10 3 -10 14 0 12 5 21 10 21 6 0 10 -6 10 -14z
m1235 -6 c10 -11 22 -17 26 -14 5 3 9 -4 9 -15 0 -28 -34 -28 -57 -1 -10 11
-23 20 -30 20 -7 0 -13 -9 -13 -20 0 -26 -16 -26 -30 1 -18 33 -5 49 38 49 26
0 45 -7 57 -20z m800 9 c12 -19 -5 -23 -22 -6 -16 16 -16 17 -1 17 9 0 20 -5
23 -11z m309 2 c3 -5 -3 -11 -14 -14 -20 -5 -26 3 -13 16 9 10 21 9 27 -2z
m8715 -10 c11 -7 10 -12 -5 -29 -21 -25 -34 -20 -34 14 0 25 14 30 39 15z
m-9651 -13 c-3 -7 -11 -13 -18 -13 -7 0 -15 6 -17 13 -3 7 4 12 17 12 13 0 20
-5 18 -12z m832 2 c0 -5 -2 -10 -4 -10 -3 0 -8 5 -11 10 -3 6 -1 10 4 10 6 0
11 -4 11 -10z m8730 2 c0 -5 -10 -8 -22 -8 -13 1 -22 -4 -20 -11 1 -7 -2 -13
-7 -13 -11 0 -22 26 -14 34 9 9 63 7 63 -2z m-9412 -13 c-2 -6 -8 -10 -13 -10
-5 0 -11 4 -13 10 -2 6 4 11 13 11 9 0 15 -5 13 -11z m-1408 -9 c0 -5 -2 -10
-4 -10 -3 0 -8 5 -11 10 -3 6 -1 10 4 10 6 0 11 -4 11 -10z m313 3 c3 -5 -1
-14 -9 -21 -12 -11 -14 -9 -14 8 0 20 14 27 23 13z m10777 -12 c0 -12 -20 -25
-27 -18 -7 7 6 27 18 27 5 0 9 -4 9 -9z m-9930 -11 c0 -5 -2 -10 -4 -10 -3 0
-8 5 -11 10 -3 6 -1 10 4 10 6 0 11 -4 11 -10z m9743 -16 c-4 -13 -26 -11 -30
3 -2 6 4 10 14 9 10 -2 17 -7 16 -12z m307 0 c6 -6 0 -9 -18 -8 -35 3 -34 3
-28 13 7 11 33 8 46 -5z m-10674 -21 c-10 -10 -19 5 -10 18 6 11 8 11 12 0 2
-7 1 -15 -2 -18z m799 17 c3 -5 1 -10 -4 -10 -6 0 -11 5 -11 10 0 6 2 10 4 10
3 0 8 -4 11 -10z m225 0 c0 -5 -7 -10 -15 -10 -8 0 -15 5 -15 10 0 6 7 10 15
10 8 0 15 -4 15 -10z m9445 -17 c-25 -17 -35 -17 -35 3 0 8 4 13 9 9 5 -3 12
-1 16 5 4 6 11 7 17 4 7 -5 4 -12 -7 -21z m509 -4 c-3 -5 -12 -9 -20 -9 -15 0
-14 -11 4 -59 3 -9 0 -12 -9 -9 -21 7 -28 80 -9 95 16 12 44 -2 34 -18z
m-11280 3 c3 -5 -1 -9 -9 -9 -8 0 -12 4 -9 9 3 4 7 8 9 8 2 0 6 -4 9 -8z
m1479 -24 c-8 -43 -12 -47 -26 -23 -15 26 -15 38 -2 47 24 17 34 8 28 -24z
m-233 12 c0 -5 -4 -10 -9 -10 -6 0 -13 5 -16 10 -3 6 1 10 9 10 9 0 16 -4 16
-10z m9690 0 c0 -5 -4 -10 -10 -10 -5 0 -10 5 -10 10 0 6 5 10 10 10 6 0 10
-4 10 -10z m235 -16 c14 -14 23 -30 20 -35 -8 -12 -55 -12 -55 1 0 6 5 10 10
10 7 0 7 6 0 19 -20 39 -11 41 25 5z m-10935 12 c0 -11 -19 -15 -25 -6 -3 5 1
10 9 10 9 0 16 -2 16 -4z m1160 -28 c0 -5 -4 -8 -10 -8 -5 0 -10 10 -10 23 0
18 2 19 10 7 5 -8 10 -18 10 -22z m9990 22 c0 -5 -4 -10 -10 -10 -5 0 -10 5
-10 10 0 6 5 10 10 10 6 0 10 -4 10 -10z m77 -22 c-3 -7 -5 -2 -5 12 0 14 2
19 5 13 2 -7 2 -19 0 -25z m-10931 6 c-3 -9 -6 -20 -6 -25 0 -6 -4 -8 -9 -5
-7 5 -8 23 -2 44 1 1 6 2 12 2 6 0 8 -7 5 -16z m156 -16 c-5 -21 -6 -21 -12
-2 -8 21 -3 37 10 29 4 -3 6 -15 2 -27z m10655 -25 c-4 -17 -4 -17 -12 0 -4 9
-4 25 0 35 8 16 8 16 12 0 3 -10 3 -26 0 -35z m-10727 29 c18 -8 20 -43 4 -49
-17 -6 -58 32 -50 45 8 13 23 14 46 4z m154 0 c8 -13 -11 -35 -23 -28 -16 10
-14 36 3 36 8 0 17 -4 20 -8z m9236 -27 c0 -23 -5 -35 -14 -35 -14 0 -14 5 -1
48 10 31 15 27 15 -13z m17 13 c-3 -8 -6 -5 -6 6 -1 11 2 17 5 13 3 -3 4 -12
1 -19z m-9184 -25 c5 -24 3 -33 -7 -33 -12 0 -14 22 -7 69 2 11 9 -7 14 -36z
m4947 7 c0 -14 -15 -19 -29 -10 -17 10 -5 31 14 23 8 -3 15 -9 15 -13z m4355
0 c2 -4 -8 -6 -23 -4 -35 3 -34 2 -28 13 6 10 43 3 51 -9z m-9225 6 c0 -3 -4
-8 -10 -11 -5 -3 -10 -1 -10 4 0 6 5 11 10 11 6 0 10 -2 10 -4z m9327 -23 c-3
-3 -11 -2 -17 2 -9 6 -9 10 1 16 14 8 27 -7 16 -18z m1233 7 c0 -11 -7 -20
-15 -20 -15 0 -21 21 -8 33 12 13 23 7 23 -13z m-10790 -5 c0 -8 -7 -15 -15
-15 -8 0 -15 7 -15 15 0 8 7 15 15 15 8 0 15 -7 15 -15z m9520 5 c0 -5 -5 -10
-11 -10 -5 0 -7 5 -4 10 3 6 8 10 11 10 2 0 4 -4 4 -10z m-9182 -21 c2 -9 -5
-19 -14 -23 -20 -8 -19 -8 -29 22 -6 21 -4 23 16 20 13 -2 25 -10 27 -19z m52
11 c0 -13 -28 -25 -38 -16 -3 4 0 11 8 16 20 13 30 12 30 0z m-166 -21 c-3 -5
-10 -7 -15 -3 -5 3 -7 10 -3 15 3 5 10 7 15 3 5 -3 7 -10 3 -15z m9336 -14 c0
-8 -4 -17 -10 -20 -6 -4 -10 5 -10 20 0 15 4 24 10 20 6 -3 10 -12 10 -20z
m-9123 -17 c-3 -7 -5 -2 -5 12 0 14 2 19 5 13 2 -7 2 -19 0 -25z m103 20 c0
-4 -4 -8 -10 -8 -5 0 -10 -8 -10 -17 0 -13 -3 -14 -11 -6 -15 15 -5 40 15 40
9 0 16 -4 16 -9z m4466 -81 c6 -3 14 -3 18 0 4 4 18 8 32 9 18 1 22 -2 14 -10
-15 -15 -97 -15 -97 0 0 12 15 13 33 1z m-5494 -92 c3 -14 1 -25 -3 -25 -5 0
-9 11 -9 25 0 14 2 25 4 25 2 0 6 -11 8 -25z m-81 2 c-1 -12 -15 -9 -19 4 -3
6 1 10 8 8 6 -3 11 -8 11 -12z m3019 -3 c0 -8 -5 -12 -10 -9 -6 4 -8 11 -5 16
9 14 15 11 15 -7z m-2863 -19 c0 -8 -4 -15 -8 -15 -11 0 -20 16 -12 24 11 11
20 7 20 -9z m1933 -5 c0 -5 -7 -10 -16 -10 -8 0 -12 5 -9 10 3 6 10 10 16 10
5 0 9 -4 9 -10z m-2005 -20 c-3 -4 -14 -10 -25 -13 -14 -4 -20 0 -20 13 0 13
6 16 25 12 14 -2 23 -8 20 -12z m-947 -4 c10 -6 11 -11 3 -19 -18 -18 -39 -16
-44 3 -7 29 10 36 41 16z m72 4 c0 -5 -4 -10 -10 -10 -5 0 -10 5 -10 10 0 6 5
10 10 10 6 0 10 -4 10 -10z m150 0 c0 -5 -2 -10 -4 -10 -3 0 -8 5 -11 10 -3 6
-1 10 4 10 6 0 11 -4 11 -10z m-193 -32 c-3 -7 -5 -2 -5 12 0 14 2 19 5 13 2
-7 2 -19 0 -25z m967 26 c9 -3 13 -10 10 -15 -8 -14 -21 -11 -28 6 -6 17 -4
18 18 9z m86 -4 c0 -5 -5 -10 -11 -10 -5 0 -7 5 -4 10 3 6 8 10 11 10 2 0 4
-4 4 -10z m234 4 c14 -5 14 -9 0 -35 -20 -39 -36 -37 -30 4 6 43 4 41 30 31z
m-160 -45 c-8 -13 -24 -1 -24 18 0 13 3 13 15 3 8 -7 12 -16 9 -21z m226 27
c0 -11 -19 -15 -25 -6 -3 5 1 10 9 10 9 0 16 -2 16 -4z m5670 -6 c0 -5 -2 -10
-4 -10 -3 0 -8 5 -11 10 -3 6 -1 10 4 10 6 0 11 -4 11 -10z m-6914 -37 c-10
-10 -19 5 -10 18 6 11 8 11 12 0 2 -7 1 -15 -2 -18z m1081 5 c-3 -8 -6 -5 -6
6 -1 11 2 17 5 13 3 -3 4 -12 1 -19z m473 12 c0 -5 -4 -10 -10 -10 -5 0 -10 5
-10 10 0 6 5 10 10 10 6 0 10 -4 10 -10z m-229 -23 c-1 -12 -15 -9 -19 4 -3 6
1 10 8 8 6 -3 11 -8 11 -12z m229 -1 c0 -3 -4 -8 -10 -11 -5 -3 -10 -1 -10 4
0 6 5 11 10 11 6 0 10 -2 10 -4z m95 -16 c4 -6 3 -10 -2 -9 -22 4 -33 -3 -33
-21 0 -11 -4 -20 -9 -20 -12 0 -24 37 -16 50 8 13 52 13 60 0z m50 -10 c3 -5
1 -10 -4 -10 -6 0 -11 5 -11 10 0 6 2 10 4 10 3 0 8 -4 11 -10z m-145 -15 c0
-2 -7 -5 -15 -9 -9 -3 -15 0 -15 9 0 9 6 12 15 9 8 -4 15 -7 15 -9z m7208 -11
c18 -13 21 -19 11 -30 -17 -21 -26 -17 -38 16 -11 34 -5 37 27 14z m-151 -18
c-4 -13 -47 -21 -47 -9 0 5 5 14 11 20 14 14 41 5 36 -11z m-6913 -7 c-3 -5
-10 -7 -15 -3 -5 3 -7 10 -3 15 3 5 10 7 15 3 5 -3 7 -10 3 -15z m6821 11 c3
-5 1 -10 -4 -10 -6 0 -11 5 -11 10 0 6 2 10 4 10 3 0 8 -4 11 -10z m-139 -67
c-5 -12 -16 -14 -51 -11 -50 6 -63 -7 -33 -33 15 -14 16 -18 4 -22 -9 -4 -18
-2 -21 4 -4 5 -12 6 -18 2 -24 -15 -57 -14 -57 2 0 8 7 15 16 15 9 0 18 9 21
20 4 14 17 22 45 26 22 4 45 12 51 19 31 31 58 17 43 -22z m54 17 c0 -16 -2
-30 -5 -30 -9 0 -26 41 -20 50 12 20 25 9 25 -20z m2224 22 c2 -4 -4 -13 -15
-20 -15 -10 -19 -10 -19 1 0 24 23 36 34 19z m-2104 -38 c0 -8 -9 -14 -20 -14
-21 0 -24 8 -14 34 5 13 9 14 20 5 8 -6 14 -18 14 -25z m60 26 c0 -5 -4 -10
-9 -10 -6 0 -13 5 -16 10 -3 6 1 10 9 10 9 0 16 -4 16 -10z m-460 -46 c0 -8
-7 -14 -15 -14 -15 0 -21 21 -9 33 10 9 24 -2 24 -19z m80 5 c0 -11 -4 -17
-10 -14 -5 3 -10 13 -10 21 0 8 5 14 10 14 6 0 10 -9 10 -21z m-7934 -4 c7
-18 -14 -47 -27 -39 -5 3 -9 16 -9 30 0 27 27 34 36 9z m51 -7 c-3 -8 -6 -5
-6 6 -1 11 2 17 5 13 3 -3 4 -12 1 -19z m5106 -18 c-7 -8 -22 24 -16 34 4 5
10 1 13 -10 4 -10 6 -21 3 -24z m5102 31 c3 -5 1 -12 -5 -16 -5 -3 -10 1 -10
9 0 18 6 21 15 7z m329 -3 c-3 -4 -9 -8 -15 -8 -5 0 -9 4 -9 8 0 5 7 9 15 9 8
0 12 -4 9 -9z m-234 -8 c8 -5 11 -12 8 -16 -10 -9 -38 3 -38 16 0 12 10 13 30
0z m-5396 -6 c9 -3 16 -13 16 -22 0 -13 -2 -12 -14 3 -13 17 -13 17 -12 -10 0
-15 -4 -30 -10 -32 -6 -2 -8 10 -6 32 2 19 6 35 7 35 2 0 10 -3 19 -6z m-109
-24 c-10 -11 -22 -17 -28 -13 -6 4 -3 12 8 20 28 20 41 16 20 -7z m166 10 c21
-12 26 -29 7 -26 -19 3 -38 16 -38 27 0 12 7 11 31 -1z m5865 -4 c26 -27 14
-33 -31 -16 -14 5 -23 14 -20 20 9 14 34 12 51 -4z m79 4 c-3 -5 -1 -10 4 -10
6 0 11 -8 11 -17 0 -16 -1 -16 -16 -1 -14 14 -13 38 2 38 3 0 2 -4 -1 -10z
m-10735 -8 c0 -4 -9 -13 -20 -20 -18 -11 -20 -10 -20 8 0 13 7 20 20 20 11 0
20 -3 20 -8z m4568 -9 c-2 -10 -13 -19 -26 -21 -24 -4 -29 7 -10 26 18 18 40
15 36 -5z m-4498 -3 c0 -5 -4 -10 -10 -10 -5 0 -10 5 -10 10 0 6 5 10 10 10 6
0 10 -4 10 -10z m7326 -25 c-16 -12 -17 -17 -6 -30 10 -13 9 -15 -9 -15 -15 0
-21 6 -21 22 0 30 30 62 44 48 8 -8 6 -15 -8 -25z m70 12 c1 -9 -3 -17 -10
-17 -18 0 -25 10 -19 26 7 19 26 13 29 -9z m100 -14 c-1 -14 -7 -28 -13 -31
-16 -5 -17 12 -3 39 14 25 17 24 16 -8z m2884 5 c0 -13 -23 -5 -28 10 -2 7 2
10 12 6 9 -3 16 -11 16 -16z m-10555 -8 c3 -5 1 -10 -4 -10 -6 0 -11 5 -11 10
0 6 2 10 4 10 3 0 8 -4 11 -10z m10779 1 c3 -4 3 -11 0 -14 -8 -8 -34 3 -34
14 0 11 27 12 34 0z m376 -11 c0 -11 -6 -20 -13 -20 -19 0 -27 10 -20 26 8 21
33 17 33 -6z m-6630 6 c0 -11 -19 -15 -25 -6 -3 5 1 10 9 10 9 0 16 -2 16 -4z
m103 -9 c4 3 7 -1 7 -9 0 -23 -34 -16 -39 8 -3 15 -1 16 11 6 8 -6 18 -9 21
-5z m-5243 -7 c0 -5 -4 -10 -10 -10 -5 0 -10 5 -10 10 0 6 5 10 10 10 6 0 10
-4 10 -10z m934 -11 c-3 -5 -10 -7 -15 -3 -5 3 -7 10 -3 15 3 5 10 7 15 3 5
-3 7 -10 3 -15z m236 9 c0 -19 -18 -43 -25 -36 -4 3 -2 16 5 27 12 24 20 27
20 9z m54 -6 c3 -5 -1 -9 -9 -9 -8 0 -12 4 -9 9 3 4 7 8 9 8 2 0 6 -4 9 -8z
m3833 -8 c14 -14 14 -17 0 -31 -14 -14 -16 -13 -26 6 -8 15 -9 21 -1 21 6 0 8
5 5 10 -10 15 5 12 22 -6z m630 10 c-3 -3 -12 -4 -19 -1 -8 3 -5 6 6 6 11 1
17 -2 13 -5z m6197 -26 c-3 -4 -11 -5 -19 -1 -9 3 -15 -1 -15 -11 0 -23 -17
-20 -23 4 -4 15 0 20 14 20 10 0 19 5 19 10 0 6 6 5 14 -2 8 -7 12 -16 10 -20z
m-3991 0 c-13 -12 -26 -18 -30 -14 -4 4 1 14 11 22 31 22 43 17 19 -8z m-7893
-8 c0 -11 -4 -20 -10 -20 -5 0 -10 9 -10 20 0 11 5 20 10 20 6 0 10 -9 10 -20z
m4938 -5 c22 -21 24 -25 9 -26 -18 -2 -35 -5 -39 -9 -2 -1 -11 -3 -20 -5 -19
-3 -24 18 -12 49 9 23 31 20 62 -9z m60 5 c10 -16 10 -20 -2 -20 -8 0 -17 -6
-19 -12 -3 -7 -6 2 -6 20 -1 37 9 41 27 12z m3066 -11 c-8 -13 -24 -1 -24 18
0 13 3 13 15 3 8 -7 12 -16 9 -21z m2656 15 c0 -8 -5 -12 -10 -9 -6 4 -8 11
-5 16 9 14 15 11 15 -7z m960 -9 c-7 -9 -15 -13 -18 -10 -3 2 1 11 8 20 7 9
15 13 18 10 3 -2 -1 -11 -8 -20z m-11440 7 c0 -5 -9 -17 -20 -27 -20 -18 -20
-17 -20 8 0 20 5 27 20 27 11 0 20 -4 20 -8z m68 -46 c-5 -6 -13 -5 -20 2 -9
9 -9 12 1 12 7 0 9 5 6 10 -3 6 -3 16 1 22 6 9 10 5 15 -12 3 -14 2 -29 -3
-34z m995 4 c-6 -7 -23 23 -23 40 0 8 6 4 13 -10 8 -14 12 -27 10 -30z m166 9
c-24 -24 -31 -24 -27 -1 5 27 21 41 35 30 9 -7 7 -14 -8 -29z m10505 19 c9
-34 8 -38 -9 -38 -10 0 -15 10 -15 30 0 35 15 40 24 8z m-11601 -3 c-3 -9 -8
-14 -10 -11 -3 3 -2 9 2 15 9 16 15 13 8 -4z m992 3 c5 4 5 1 1 -6 -6 -10 -11
-10 -22 -1 -8 6 -14 14 -14 16 0 3 6 0 13 -6 8 -6 18 -7 22 -3z m6615 2 c0 -5
-5 -10 -11 -10 -5 0 -7 5 -4 10 3 6 8 10 11 10 2 0 4 -4 4 -10z m-7910 -4 c0
-2 -7 -9 -15 -16 -13 -11 -14 -10 -9 4 5 14 24 23 24 12z m5485 -14 c-12 -12
-35 -10 -35 3 0 8 7 11 20 8 12 -3 18 -8 15 -11z m6215 8 c0 -5 -4 -10 -10
-10 -5 0 -10 5 -10 10 0 6 5 10 10 10 6 0 10 -4 10 -10z m-11630 -10 c0 -5 -5
-10 -11 -10 -5 0 -7 5 -4 10 3 6 8 10 11 10 2 0 4 -4 4 -10z m320 -10 c0 -11
-5 -20 -12 -20 -6 0 -8 3 -5 7 4 3 2 12 -4 20 -9 10 -8 13 5 13 9 0 16 -8 16
-20z m65 10 c3 -5 1 -10 -4 -10 -6 0 -11 5 -11 10 0 6 2 10 4 10 3 0 8 -4 11
-10z m875 1 c0 -12 -20 -25 -27 -18 -7 7 6 27 18 27 5 0 9 -4 9 -9z m4186 -16
c1 -8 -2 -13 -7 -9 -5 3 -9 12 -9 21 0 19 13 9 16 -12z m2099 16 c3 -5 -2 -17
-11 -25 -13 -14 -13 -16 -1 -16 10 0 13 -7 10 -20 -5 -18 -6 -18 -32 -3 -14
10 -28 18 -30 20 -5 3 42 53 51 53 4 0 9 -4 13 -9z m162 -37 c-9 -10 -38 16
-31 28 4 6 13 4 22 -6 9 -8 13 -19 9 -22z m2983 20 c0 -8 -5 -12 -10 -9 -6 4
-8 11 -5 16 9 14 15 11 15 -7z m1357 10 c-3 -3 -12 -4 -19 -1 -8 3 -5 6 6 6
11 1 17 -2 13 -5z m-6802 -14 c-3 -5 -11 -10 -16 -10 -6 0 -7 5 -4 10 3 6 11
10 16 10 6 0 7 -4 4 -10z m2365 0 c0 -5 -2 -10 -4 -10 -3 0 -8 5 -11 10 -3 6
-1 10 4 10 6 0 11 -4 11 -10z m-7060 -15 c0 -8 -7 -15 -15 -15 -26 0 -18 20
13 29 1 1 2 -6 2 -14z m860 6 c0 -5 -7 -12 -16 -15 -14 -5 -15 -4 -4 9 14 17
20 19 20 6z m300 -6 c0 -8 -4 -15 -10 -15 -5 0 -10 7 -10 15 0 8 5 15 10 15 6
0 10 -7 10 -15z m3677 -2 c0 -9 -4 -10 -14 -2 -7 6 -13 12 -13 14 0 1 6 2 13
2 8 0 14 -6 14 -14z m91 -8 c-3 -3 -9 2 -12 12 -6 14 -5 15 5 6 7 -7 10 -15 7
-18z m-4887 -2 c13 -16 12 -17 -3 -4 -10 7 -18 15 -18 17 0 8 8 3 21 -13z
m1253 3 c15 3 33 0 47 -9 12 -9 28 -13 35 -10 19 7 18 -11 -1 -27 -8 -7 -15
-9 -15 -6 0 4 -6 4 -12 0 -20 -12 -80 -15 -73 -4 4 6 -8 10 -28 10 -26 0 -36
5 -40 20 -6 25 20 42 45 29 10 -5 29 -7 42 -3z m5466 -28 c0 -19 -15 -24 -24
-10 -3 5 -2 19 1 31 4 17 8 19 14 9 5 -7 9 -21 9 -30z m80 16 c0 -14 -3 -14
-15 -4 -8 7 -15 14 -15 16 0 2 7 4 15 4 8 0 15 -7 15 -16z m3200 3 c0 -8 -3
-16 -6 -20 -8 -8 -33 16 -27 26 7 12 33 8 33 -6z m-10133 -19 c-3 -8 -6 -5 -6
6 -1 11 2 17 5 13 3 -3 4 -12 1 -19z m320 7 c0 -8 -4 -12 -9 -9 -5 3 -6 10 -3
15 9 13 12 11 12 -6z m10131 -8 c2 -9 -3 -17 -10 -17 -8 0 -14 9 -15 21 -2 24
20 20 25 -4z m-10073 -25 c-10 -10 -16 -12 -13 -7 3 6 8 19 13 30 5 14 9 16
12 7 3 -8 -3 -21 -12 -30z m871 23 c-3 -8 -1 -15 5 -15 6 0 7 -4 4 -10 -12
-20 -35 -10 -35 15 0 16 6 25 16 25 10 0 14 -6 10 -15z m5524 -5 c0 -5 -2 -10
-4 -10 -3 0 -8 5 -11 10 -3 6 -1 10 4 10 6 0 11 -4 11 -10z m3555 -10 c-3 -5
-10 -10 -16 -10 -5 0 -9 5 -9 10 0 6 7 10 16 10 8 0 12 -4 9 -10z m395 -11 c0
-11 -4 -18 -10 -14 -5 3 -7 12 -3 20 7 21 13 19 13 -6z m-9096 2 c3 -5 -1 -14
-9 -21 -13 -10 -15 -9 -15 9 0 21 14 28 24 12z m9192 -7 c-3 -9 -6 -29 -6 -45
0 -20 -4 -27 -14 -23 -22 8 -27 32 -11 48 8 8 15 19 15 25 0 6 5 11 11 11 6 0
8 -7 5 -16z m-9026 -15 c0 -5 -6 -9 -13 -9 -8 0 -14 6 -14 14 0 8 6 12 14 9 7
-3 13 -9 13 -14z m-1185 2 c3 -5 1 -12 -5 -16 -5 -3 -10 1 -10 9 0 18 6 21 15
7z m100 0 c3 -5 1 -12 -5 -16 -6 -4 -8 -10 -5 -15 3 -4 -2 -14 -11 -21 -14
-11 -15 -9 -11 22 3 19 6 35 6 37 2 6 20 1 26 -7z m5945 -9 c0 -10 -21 -32
-31 -32 -4 0 -9 9 -12 20 -4 16 0 20 19 20 13 0 24 -4 24 -8z m-4710 -6 c0
-11 -19 -15 -25 -6 -3 5 1 10 9 10 9 0 16 -2 16 -4z m68 -13 c-4 -22 -22 -20
-26 1 -2 10 3 16 13 16 10 0 15 -7 13 -17z m4695 11 c8 -8 -3 -34 -14 -34 -5
0 -9 9 -9 20 0 19 11 26 23 14z m-5843 -12 c0 -4 -9 -15 -20 -25 -19 -16 -20
-16 -20 8 0 18 5 25 20 25 11 0 20 -3 20 -8z m143 -12 c-5 -20 -15 -25 -26
-14 -9 9 4 34 18 34 8 0 11 -8 8 -20z m705 8 c-6 -18 -28 -21 -28 -4 0 9 7 16
16 16 9 0 14 -5 12 -12z m72 2 c0 -5 -4 -10 -10 -10 -5 0 -10 5 -10 10 0 6 5
10 10 10 6 0 10 -4 10 -10z m9267 -12 c-3 -8 -6 -5 -6 6 -1 11 2 17 5 13 3 -3
4 -12 1 -19z m223 2 c0 -13 -7 -20 -20 -20 -19 0 -27 20 -13 33 13 14 33 6 33
-13z m-10350 0 c0 -5 -4 -10 -10 -10 -5 0 -10 5 -10 10 0 6 5 10 10 10 6 0 10
-4 10 -10z m5490 -15 c0 -9 -6 -12 -16 -8 -13 5 -13 7 -2 14 17 11 18 11 18
-6z m-1343 -1 c-3 -3 -12 -4 -19 -1 -8 3 -5 6 6 6 11 1 17 -2 13 -5z m-3759
-21 c-5 -25 -28 -28 -28 -4 0 12 6 21 16 21 9 0 14 -7 12 -17z m1079 10 c-4
-3 -1 -13 6 -21 10 -13 9 -15 -6 -9 -10 4 -21 7 -23 7 -2 0 -4 7 -4 15 0 8 8
15 17 15 9 0 13 -3 10 -7z m82 -19 c-14 -18 -24 -11 -15 11 3 9 11 13 16 10 8
-5 7 -11 -1 -21z m2458 20 c-3 -3 -12 -4 -19 -1 -8 3 -5 6 6 6 11 1 17 -2 13
-5z m1332 -8 c8 -10 8 -16 -2 -24 -10 -8 -13 -5 -15 14 -2 28 1 30 17 10z
m-4874 -6 c3 -5 1 -10 -4 -10 -6 0 -11 5 -11 10 0 6 2 10 4 10 3 0 8 -4 11
-10z m695 0 c0 -5 -5 -10 -11 -10 -5 0 -7 5 -4 10 3 6 8 10 11 10 2 0 4 -4 4
-10z m250 2 c0 -5 -11 -18 -23 -31 -21 -19 -26 -20 -36 -7 -7 8 -20 12 -29 9
-13 -4 -12 -2 3 10 15 11 22 12 27 4 5 -8 8 -6 8 6 0 11 8 17 25 17 14 0 25
-4 25 -8z m-2116 -17 c4 -10 -1 -15 -16 -15 -17 0 -18 2 -8 15 7 8 14 15 15
15 2 0 5 -7 9 -15z m2331 5 c6 -9 -17 -40 -29 -40 -8 0 -7 35 1 43 9 10 21 9
28 -3z m-2237 -33 c3 -25 1 -27 -34 -27 -35 0 -36 1 -21 18 10 10 17 24 17 31
0 25 35 6 38 -22z m5792 29 c0 -2 -8 -10 -17 -17 -16 -13 -17 -12 -4 4 13 16
21 21 21 13z m64 -4 c3 -5 -1 -9 -9 -9 -8 0 -15 4 -15 9 0 4 4 8 9 8 6 0 12
-4 15 -8z m5094 -10 c5 -17 -54 -16 -61 2 -4 10 3 13 26 12 17 -1 32 -7 35
-14z m-8620 -4 c18 -18 14 -34 -12 -46 -30 -13 -34 -10 -28 28 4 31 20 38 40
18z m2049 6 c-3 -3 -12 -4 -19 -1 -8 3 -5 6 6 6 11 1 17 -2 13 -5z m6673 -3
c0 -11 -26 -22 -34 -14 -12 12 -5 23 14 23 11 0 20 -4 20 -9z m-10990 -11 c0
-5 -7 -10 -15 -10 -8 0 -15 5 -15 10 0 6 7 10 15 10 8 0 15 -4 15 -10z m75
-11 c-4 -5 -13 -9 -21 -9 -8 0 -14 -6 -15 -12 0 -10 -2 -10 -6 0 -3 7 3 19 13
27 20 14 38 10 29 -6z m1015 11 c0 -5 -4 -10 -10 -10 -5 0 -10 5 -10 10 0 6 5
10 10 10 6 0 10 -4 10 -10z m930 -24 c0 -5 -7 -3 -15 4 -8 7 -12 17 -9 22 7
10 24 -9 24 -26z m300 25 c0 -6 -4 -13 -10 -16 -5 -3 -10 1 -10 9 0 9 5 16 10
16 6 0 10 -4 10 -9z m-2488 -43 c-16 -16 -37 4 -28 28 6 16 8 16 23 1 13 -13
15 -19 5 -29z m1183 11 c-8 -12 -35 -12 -35 0 0 11 22 20 33 14 4 -2 5 -9 2
-14z m212 -13 c-12 -13 -16 -13 -20 -2 -7 18 14 39 26 27 6 -6 4 -16 -6 -25z
m8703 30 c0 -11 -19 -15 -25 -6 -3 5 1 10 9 10 9 0 16 -2 16 -4z m-9788 -50
c-3 -5 -9 -1 -12 10 -4 10 -5 23 -2 28 3 5 9 1 12 -10 4 -10 5 -23 2 -28z
m2278 40 c0 -11 -19 -15 -25 -6 -3 5 1 10 9 10 9 0 16 -2 16 -4z m132 -18 c-2
-10 -8 -15 -13 -12 -14 8 -11 31 5 31 8 0 11 -8 8 -19z m7488 -37 c0 -9 -48
-30 -55 -23 -12 13 -3 32 15 32 17 0 19 5 14 28 l-6 27 16 -29 c9 -15 16 -31
16 -35z m-8500 18 c0 -19 -26 -8 -27 12 -2 17 1 18 13 9 8 -7 14 -16 14 -21z
m917 -6 c-3 -10 -5 -4 -5 12 0 17 2 24 5 18 2 -7 2 -21 0 -30z m7263 27 c0 -5
-9 -10 -20 -10 -11 0 -20 5 -20 10 0 6 9 10 20 10 11 0 20 -4 20 -10z m-9420
-10 c0 -5 -4 -10 -9 -10 -6 0 -13 5 -16 10 -3 6 1 10 9 10 9 0 16 -4 16 -10z
m860 6 c0 -11 -19 -15 -25 -6 -3 5 1 10 9 10 9 0 16 -2 16 -4z m9162 -44 c-21
-16 -21 -19 -7 -40 17 -23 7 -30 -13 -10 -16 16 -15 85 1 91 6 3 19 -2 27 -10
13 -12 12 -16 -8 -31z m-7682 29 c0 -5 -7 -14 -15 -21 -18 -15 -42 1 -31 19 8
13 46 15 46 2z m-3204 -9 c16 -10 -1 -52 -20 -52 -12 0 -14 5 -6 24 5 13 6 27
3 30 -9 8 10 7 23 -2z m1085 -36 c-6 -7 -8 -16 -4 -19 3 -4 1 -7 -6 -7 -9 0
-11 8 -7 23 3 12 6 29 6 37 1 12 3 11 11 -3 7 -13 7 -22 0 -31z m1101 18 c-5
-32 -11 -44 -22 -44 -8 0 -8 31 -1 68 1 2 7 2 14 -1 6 -2 11 -13 9 -23z m1158
12 c0 -7 14 -27 30 -44 35 -37 36 -41 10 -39 -11 1 -20 6 -20 13 0 6 -11 16
-24 22 -18 8 -22 16 -19 36 5 27 23 36 23 12z m-2480 -18 c0 -12 -1 -19 -3
-17 -1 2 -9 12 -16 22 -12 14 -11 17 3 17 10 0 16 -8 16 -22z m2560 12 c0 -5
-7 -10 -16 -10 -8 0 -12 5 -9 10 3 6 10 10 16 10 5 0 9 -4 9 -10z m7060 0 c0
-5 -2 -10 -4 -10 -3 0 -8 5 -11 10 -3 6 -1 10 4 10 6 0 11 -4 11 -10z m-9310
-31 c0 -11 -7 -19 -16 -19 -11 0 -14 5 -10 16 3 9 6 20 6 25 0 6 5 7 10 4 6
-3 10 -15 10 -26z m2322 16 c0 -5 -5 -11 -11 -13 -6 -2 -11 4 -11 13 0 9 5 15
11 13 6 -2 11 -8 11 -13z m3848 -5 c0 -10 -31 -22 -38 -16 -2 3 -2 12 1 20 6
15 37 12 37 -4z m3941 -9 c-7 -12 -6 -24 3 -37 12 -17 11 -19 -10 -20 -21 -2
-24 3 -24 30 0 33 17 59 32 50 4 -3 4 -13 -1 -23z m-11191 14 c0 -12 -24 -55
-31 -55 -4 0 -7 14 -7 30 1 22 6 30 20 30 10 0 18 -2 18 -5z m1145 -4 c3 -5 1
-12 -5 -16 -5 -3 -10 1 -10 9 0 18 6 21 15 7z m1100 -13 c-12 -38 -24 -43 -23
-9 1 20 6 31 15 31 10 0 12 -7 8 -22z m140 -16 c-6 -15 -8 -15 -15 3 -4 12 -3
23 4 27 14 9 20 -7 11 -30z m8205 17 c0 -5 -11 -9 -25 -9 -28 0 -34 16 -7 23
20 4 32 -1 32 -14z m-9760 1 c0 -5 -5 -10 -11 -10 -5 0 -7 5 -4 10 3 6 8 10
11 10 2 0 4 -4 4 -10z m6360 -6 c0 -2 -9 -4 -21 -4 -11 0 -18 4 -14 10 5 8 35
3 35 -6z m3813 2 c10 4 15 0 13 -11 -1 -8 -5 -15 -9 -15 -13 0 -47 25 -47 34
0 4 6 3 14 -3 7 -6 20 -9 29 -5z m-11178 -6 c3 -5 1 -10 -4 -10 -6 0 -11 5
-11 10 0 6 2 10 4 10 3 0 8 -4 11 -10z m470 -21 c-11 -17 -35 -9 -35 11 0 18
3 19 20 10 11 -6 18 -15 15 -21z m935 9 c0 -17 -3 -19 -9 -9 -5 7 -15 17 -22
22 -10 6 -8 9 9 9 16 0 22 -6 22 -22z m80 12 c0 -5 -7 -10 -15 -10 -8 0 -15 5
-15 10 0 6 7 10 15 10 8 0 15 -4 15 -10z m9907 -5 c0 -8 -4 -12 -9 -9 -5 3 -6
10 -3 15 9 13 12 11 12 -6z m-11067 -3 c0 -4 -9 -13 -20 -20 -18 -11 -20 -10
-20 8 0 13 7 20 20 20 11 0 20 -3 20 -8z m2320 -11 c0 -10 -6 -21 -13 -24 -16
-6 -19 25 -3 35 15 11 16 10 16 -11z m1090 9 c0 -5 -4 -10 -9 -10 -6 0 -13 5
-16 10 -3 6 1 10 9 10 9 0 16 -4 16 -10z m7520 -31 c0 -43 -14 -46 -22 -5 -4
21 7 46 19 46 2 0 3 -18 3 -41z m-7703 -1 c-3 -7 -5 -2 -5 12 0 14 2 19 5 13
2 -7 2 -19 0 -25z m3790 10 c-3 -8 -6 -5 -6 6 -1 11 2 17 5 13 3 -3 4 -12 1
-19z m3947 -10 c-10 -16 -22 -7 -17 13 4 15 8 17 14 8 4 -7 5 -17 3 -21z
m-9663 -1 c-13 -13 -26 -3 -16 12 3 6 11 8 17 5 6 -4 6 -10 -1 -17z m2261 4
c-1 -7 2 -10 8 -6 5 3 13 -1 16 -10 8 -19 6 -22 -27 -30 -21 -5 -27 -2 -32 14
-3 14 0 21 9 21 8 0 11 6 7 16 -4 12 -2 15 8 12 8 -3 13 -11 11 -17z m7188 -2
c0 -5 -7 -9 -15 -9 -15 0 -20 12 -9 23 8 8 24 -1 24 -14z m80 11 c0 -5 -2 -10
-4 -10 -3 0 -8 5 -11 10 -3 6 -1 10 4 10 6 0 11 -4 11 -10z m348 -23 c5 -23
-10 -21 -26 4 -12 18 -11 20 5 17 10 -2 19 -11 21 -21z m277 13 c3 -5 1 -10
-4 -10 -6 0 -11 5 -11 10 0 6 2 10 4 10 3 0 8 -4 11 -10z m-11005 -9 c0 -5 -9
-19 -20 -32 -21 -26 -27 -10 -8 21 13 21 28 27 28 11z m1090 -7 c0 -8 -5 -12
-10 -9 -6 4 -8 11 -5 16 9 14 15 11 15 -7z m9714 -15 c15 -30 12 -59 -5 -59
-5 0 -9 8 -9 19 0 10 -6 24 -14 31 -15 11 -11 40 4 40 5 0 15 -14 24 -31z
m-10034 11 c0 -5 -2 -10 -4 -10 -3 0 -8 5 -11 10 -3 6 -1 10 4 10 6 0 11 -4
11 -10z m9782 -22 c-9 -9 -12 -7 -12 12 0 19 3 21 12 12 9 -9 9 -15 0 -24z
m128 12 c0 -13 -7 -20 -20 -20 -18 0 -19 3 -10 20 6 11 15 20 20 20 6 0 10 -9
10 -20z m-10845 0 c3 -5 -1 -10 -10 -10 -9 0 -13 5 -10 10 3 6 8 10 10 10 2 0
7 -4 10 -10z m1200 1 c3 -5 2 -12 -3 -15 -5 -3 -9 1 -9 9 0 17 3 19 12 6z
m10080 -21 c0 -22 -39 -19 -43 3 -3 15 1 18 20 15 12 -2 23 -10 23 -18z
m-10969 -22 c-3 -13 -5 -27 -5 -33 -1 -5 -5 -3 -11 5 -5 9 -5 19 0 26 6 6 7
14 3 17 -3 4 -1 7 5 7 7 0 10 -10 8 -22z m1224 1 c0 -11 -4 -18 -9 -15 -5 4
-12 0 -14 -6 -3 -7 -6 -3 -6 9 -1 18 6 26 27 32 1 1 2 -8 2 -20z m8195 11 c4
-6 -5 -10 -20 -10 -14 0 -24 -4 -20 -9 3 -5 1 -12 -5 -16 -6 -4 -10 5 -10 19
0 21 5 26 24 26 14 0 28 -4 31 -10z m-9270 -9 c3 -5 2 -12 -3 -15 -5 -3 -9 1
-9 9 0 17 3 19 12 6z m6517 -2 c25 16 31 10 25 -26 -4 -24 -5 -25 -11 -8 -6
16 -15 20 -47 19 -27 -2 -39 2 -39 12 0 11 5 11 26 2 20 -9 30 -9 46 1z m2943
-33 c-18 -13 -21 -13 -26 2 -4 9 -2 23 4 30 8 11 13 10 26 -2 14 -14 13 -17
-4 -30z m1170 14 c-8 -14 -68 -6 -73 9 -3 9 0 12 10 9 8 -4 21 -2 29 2 15 10
42 -7 34 -20z m-10859 -7 c-10 -10 -19 5 -10 18 6 11 8 11 12 0 2 -7 1 -15 -2
-18z m1388 0 c-9 -36 -12 -39 -20 -19 -7 20 1 46 16 46 6 0 8 -11 4 -27z m84
9 c6 -18 -15 -14 -22 4 -4 10 -1 14 6 12 6 -2 14 -10 16 -16z m8108 6 c4 -7 3
-8 -4 -4 -8 5 -12 -1 -12 -15 0 -18 -3 -20 -12 -11 -8 8 -8 15 2 27 15 18 17
18 26 3z m-7956 -29 c0 -24 -12 -24 -34 0 -13 15 -14 20 -4 23 21 8 38 -3 38
-23z m7990 21 c0 -5 -4 -10 -10 -10 -5 0 -10 5 -10 10 0 6 5 10 10 10 6 0 10
-4 10 -10z m-9080 -26 c0 -8 -4 -14 -10 -14 -5 0 -10 9 -10 21 0 11 5 17 10
14 6 -3 10 -13 10 -21z m6100 -5 c0 -10 -6 -19 -14 -19 -9 0 -12 8 -8 25 5 28
22 24 22 -6z m47 4 c0 -9 -4 -10 -14 -2 -7 6 -13 12 -13 14 0 1 6 2 13 2 8 0
14 -6 14 -14z m3203 1 c0 -8 -4 -12 -10 -9 -5 3 -10 1 -10 -6 0 -7 -3 -9 -6
-6 -4 4 -1 13 6 22 16 19 20 19 20 -1z m-8178 -44 c4 -31 -27 -41 -35 -10 -3
12 0 20 8 20 8 0 11 8 8 23 -3 17 -2 19 5 7 6 -8 12 -26 14 -40z m-1082 36 c0
-1 -5 -18 -11 -35 -8 -22 -15 -29 -22 -22 -7 7 -6 15 3 26 9 11 9 15 1 15 -7
0 -9 5 -6 10 6 9 35 15 35 6z m9342 -18 c-7 -7 -12 -8 -12 -2 0 14 12 26 19
19 2 -3 -1 -11 -7 -17z m-8423 -1 c6 -8 8 -17 4 -20 -7 -8 -33 11 -33 24 0 13
16 11 29 -4z m321 3 c0 -5 -7 -10 -15 -10 -8 0 -15 -7 -15 -16 0 -8 4 -13 9
-10 11 7 41 -3 41 -13 0 -4 -10 -7 -22 -5 -13 1 -29 3 -35 3 -20 1 -16 49 5
54 29 8 32 7 32 -3z m7838 -7 c6 -19 -25 -16 -32 3 -4 11 -1 14 11 12 9 -2 18
-9 21 -15z m497 -9 c0 -10 -8 -20 -18 -22 -22 -4 -35 27 -16 39 20 12 34 5 34
-17z m-9750 6 c3 -5 1 -10 -4 -10 -6 0 -11 5 -11 10 0 6 2 10 4 10 3 0 8 -4
11 -10z m475 -10 c0 -4 -8 -14 -17 -21 -11 -10 -14 -10 -9 -1 4 6 2 12 -3 12
-6 0 -11 6 -11 14 0 9 7 12 20 9 11 -3 20 -9 20 -13z m1003 5 c1 -5 -6 -11
-15 -13 -11 -2 -18 3 -18 13 0 17 30 18 33 0z m7864 6 c10 9 13 8 13 -5 0 -22
-36 -21 -45 2 -5 13 -4 14 6 5 9 -9 16 -10 26 -2z m-9012 -11 c3 -5 -3 -10
-14 -10 -12 0 -21 5 -21 10 0 6 6 10 14 10 8 0 18 -4 21 -10z m1230 -10 c3 -5
-1 -10 -9 -10 -9 0 -16 5 -16 10 0 6 4 10 9 10 6 0 13 -4 16 -10z m-3256 -47
c-6 -7 -23 -13 -37 -13 -24 0 -25 1 -7 20 10 11 15 20 11 20 -4 0 -4 5 -1 11
5 7 14 4 26 -7 14 -13 16 -20 8 -31z m11206 38 c3 -5 1 -12 -5 -16 -5 -3 -10
1 -10 9 0 18 6 21 15 7z m636 -9 c-6 -11 -6 -24 0 -33 7 -11 9 -8 9 11 0 17 3
21 11 13 5 -5 7 -22 3 -37 -5 -21 -9 -24 -20 -15 -8 6 -21 9 -29 5 -11 -4 -15
1 -15 18 0 38 10 56 31 56 16 0 18 -4 10 -18z m-9831 4 c0 -11 -19 -15 -25 -6
-3 5 1 10 9 10 9 0 16 -2 16 -4z m9653 -10 c10 -25 -4 -54 -29 -59 -30 -5 -44
12 -15 20 27 7 27 23 1 23 -11 0 -20 7 -20 15 0 20 56 20 63 1z m-11448 -26
c3 -5 -1 -10 -9 -10 -9 0 -16 5 -16 10 0 6 4 10 9 10 6 0 13 -4 16 -10z
m10082 -5 c0 -8 -6 -15 -14 -15 -7 0 -13 -4 -13 -10 0 -5 5 -10 10 -10 6 0 10
-7 10 -15 0 -8 -7 -15 -16 -15 -8 0 -13 4 -9 9 3 5 1 12 -4 15 -18 11 1 56 23
56 7 0 13 -7 13 -15z m1461 3 c16 -16 15 -28 -3 -28 -8 0 -15 6 -15 13 0 7 -7
4 -15 -7 -8 -11 -15 -15 -15 -9 0 6 -3 18 -6 27 -5 12 0 16 18 16 13 0 29 -5
36 -12z m-11721 -30 c-3 -8 -6 -5 -6 6 -1 11 2 17 5 13 3 -3 4 -12 1 -19z
m250 16 c-3 -3 -12 -4 -19 -1 -8 3 -5 6 6 6 11 1 17 -2 13 -5z m10119 -7 c4
-4 -5 -7 -19 -7 -15 0 -27 4 -27 10 0 11 35 8 46 -3z m124 7 c0 -3 -6 -11 -12
-17 -15 -14 -60 -19 -52 -6 3 5 12 9 20 9 8 0 14 5 14 10 0 6 7 10 15 10 8 0
15 -3 15 -6z m1020 -4 c0 -5 -7 -10 -15 -10 -8 0 -15 5 -15 10 0 6 7 10 15 10
8 0 15 -4 15 -10z m418 -3 c12 -14 -2 -47 -14 -34 -4 4 -13 2 -21 -5 -10 -8
-17 -8 -26 1 -9 10 -7 17 12 32 27 22 35 23 49 6z m-11848 -18 c0 -11 -4 -17
-10 -14 -5 3 -10 13 -10 21 0 8 5 14 10 14 6 0 10 -9 10 -21z m250 17 c0 -2
-7 -9 -15 -16 -12 -10 -15 -10 -15 4 0 9 7 16 15 16 8 0 15 -2 15 -4z m80 -14
c0 -5 -7 -17 -15 -28 -14 -18 -15 -18 -11 6 3 14 5 26 5 28 2 6 21 1 21 -6z
m11590 -18 c0 -8 -4 -12 -10 -9 -5 3 -10 13 -10 21 0 8 5 12 10 9 6 -3 10 -13
10 -21z m-11750 1 c0 -8 -7 -15 -15 -15 -8 0 -15 7 -15 15 0 8 7 15 15 15 8 0
15 -7 15 -15z m225 5 c3 -5 -1 -10 -10 -10 -9 0 -13 5 -10 10 3 6 8 10 10 10
2 0 7 -4 10 -10z m11834 -9 c12 -8 13 -12 2 -25 -16 -19 -43 -3 -34 20 6 16
12 17 32 5z m-11679 -11 c0 -5 -4 -10 -9 -10 -5 0 -7 -9 -4 -20 3 -11 0 -20
-6 -20 -12 0 -14 20 -5 44 7 18 24 22 24 6z m9685 0 c3 -5 1 -10 -4 -10 -6 0
-11 5 -11 10 0 6 2 10 4 10 3 0 8 -4 11 -10z m115 6 c0 -3 -4 -8 -10 -11 -5
-3 -10 -1 -10 4 0 6 5 11 10 11 6 0 10 -2 10 -4z m40 -18 c0 -18 -2 -20 -9 -8
-6 8 -7 18 -5 22 9 14 14 9 14 -14z m-9607 -13 c-8 -22 -22 -18 -16 5 3 11 9
17 14 15 4 -3 6 -12 2 -20z m11261 -16 c-3 -5 -10 -7 -15 -3 -5 3 -7 10 -3 15
3 5 10 7 15 3 5 -3 7 -10 3 -15z m-11377 -11 c-3 -8 -6 -5 -6 6 -1 11 2 17 5
13 3 -3 4 -12 1 -19z m11340 0 c-3 -8 -6 -5 -6 6 -1 11 2 17 5 13 3 -3 4 -12
1 -19z m-11149 0 c-6 -18 -28 -21 -28 -4 0 9 7 16 16 16 9 0 14 -5 12 -12z
m235 -8 c9 -11 28 -20 41 -20 31 0 55 -27 32 -36 -9 -3 -16 -15 -16 -26 0 -18
-1 -18 -25 -1 -14 10 -28 28 -31 41 -5 17 -12 22 -25 19 -24 -6 -34 10 -19 28
16 20 22 19 43 -5z m11027 16 c0 -3 -4 -8 -10 -11 -5 -3 -10 -1 -10 4 0 6 5
11 10 11 6 0 10 -2 10 -4z m-11372 -15 c-2 -19 4 -24 12 -11 5 8 12 11 16 7 4
-4 2 -13 -4 -19 -10 -10 -17 -8 -33 8 -15 16 -17 21 -5 21 8 0 15 -3 14 -6z
m560 -53 c-5 -15 -23 -11 -26 6 -2 11 2 14 13 10 9 -4 14 -11 13 -16z m-244
-13 c3 -9 0 -15 -8 -15 -7 0 -13 7 -13 15 0 8 4 15 8 15 4 0 9 -7 13 -15z
m306 0 c-7 -8 -17 -15 -22 -15 -6 0 -5 7 2 15 7 8 17 15 22 15 6 0 5 -7 -2
-15z m-130 -15 c0 -5 -4 -10 -10 -10 -5 0 -10 5 -10 10 0 6 5 10 10 10 6 0 10
-4 10 -10z m227 -12 c-3 -8 -6 -5 -6 6 -1 11 2 17 5 13 3 -3 4 -12 1 -19z m63
-34 c0 -8 -5 -12 -10 -9 -6 4 -8 11 -5 16 9 14 15 11 15 -7z m8110 -30 c0 -8
-5 -12 -10 -9 -6 4 -8 11 -5 16 9 14 15 11 15 -7z m-752 -19 c3 -11 0 -15 -7
-10 -13 7 -43 -13 -36 -24 2 -4 -2 -8 -9 -8 -13 0 -8 15 17 55 11 17 31 10 35
-13z m62 21 c0 -11 -19 -15 -25 -6 -3 5 1 10 9 10 9 0 16 -2 16 -4z m-31 -29
c8 -10 7 -14 -4 -14 -8 0 -15 6 -15 14 0 7 2 13 4 13 2 0 9 -6 15 -13z m-117
-32 c-2 -14 -8 -25 -13 -25 -5 0 -9 11 -9 25 0 14 6 25 14 25 9 0 12 -8 8 -25z
m858 11 c0 -3 -4 -8 -10 -11 -5 -3 -10 -1 -10 4 0 6 5 11 10 11 6 0 10 -2 10
-4z m-230 -10 c0 -3 -4 -8 -10 -11 -5 -3 -10 -1 -10 4 0 6 5 11 10 11 6 0 10
-2 10 -4z m170 -6 c0 -5 -7 -10 -15 -10 -8 0 -15 5 -15 10 0 6 7 10 15 10 8 0
15 -4 15 -10z m-1880 -59 c0 -11 -3 -11 -15 -1 -12 10 -15 10 -15 -4 0 -9 7
-16 15 -16 8 0 15 -4 15 -9 0 -6 -9 -9 -20 -8 -23 1 -26 27 -8 57 13 20 28 10
28 -19z m1647 -7 c-9 -9 -28 6 -21 18 4 6 10 6 17 -1 6 -6 8 -13 4 -17z m-937
0 c0 -2 -7 -4 -15 -4 -8 0 -15 4 -15 10 0 5 7 7 15 4 8 -4 15 -8 15 -10z
m-775 -62 c-4 -11 -8 -12 -20 -2 -8 7 -12 17 -8 24 4 6 6 20 5 31 -2 14 2 11
13 -9 9 -16 13 -36 10 -44z m615 49 c0 -5 -7 -11 -15 -15 -9 -3 -15 0 -15 9 0
8 7 15 15 15 8 0 15 -4 15 -9z m-8632 -23 c-2 -12 -10 -24 -18 -26 -12 -4 -13
-2 -3 10 10 11 10 17 1 26 -9 9 -8 12 6 12 12 0 16 -6 14 -22z m9502 18 c0 -3
-4 -8 -10 -11 -5 -3 -10 -1 -10 4 0 6 5 11 10 11 6 0 10 -2 10 -4z m-630 -16
c0 -5 -5 -10 -11 -10 -5 0 -7 5 -4 10 3 6 8 10 11 10 2 0 4 -4 4 -10z m470 0
c0 -5 -4 -10 -10 -10 -5 0 -10 5 -10 10 0 6 5 10 10 10 6 0 10 -4 10 -10z
m-860 -10 c0 -5 -4 -10 -9 -10 -6 0 -13 5 -16 10 -3 6 1 10 9 10 9 0 16 -4 16
-10z m89 1 c12 -8 12 -13 -3 -35 -22 -34 -26 -33 -26 9 0 36 5 41 29 26z
m-8414 -11 c3 -5 1 -10 -4 -10 -6 0 -11 -10 -11 -22 0 -16 -3 -19 -11 -11 -6
6 -8 20 -4 32 7 22 20 27 30 11z m8961 -37 c-11 -11 -19 6 -11 24 8 17 8 17
12 0 3 -10 2 -21 -1 -24z m69 28 c3 -5 1 -12 -5 -16 -5 -3 -10 1 -10 9 0 18 6
21 15 7z m-8735 -17 c0 -8 -5 -12 -10 -9 -6 4 -8 11 -5 16 9 14 15 11 15 -7z
m7880 -19 c0 -8 -7 -15 -15 -15 -8 0 -15 7 -15 15 0 8 7 15 15 15 8 0 15 -7
15 -15z m17 -7 c-3 -8 -6 -5 -6 6 -1 11 2 17 5 13 3 -3 4 -12 1 -19z m26 -8
c-7 -28 -13 -25 -13 6 0 14 4 23 9 20 5 -3 7 -15 4 -26z m-7829 11 c7 -11 -18
-45 -31 -40 -7 3 -7 12 -2 27 9 22 24 29 33 13z m8662 -17 c-4 -9 -9 -15 -11
-12 -3 3 -3 13 1 22 4 9 9 15 11 12 3 -3 3 -13 -1 -22z m-1043 1 c-3 -9 -8
-14 -10 -11 -3 3 -2 9 2 15 9 16 15 13 8 -4z m97 5 c0 -5 -7 -10 -16 -10 -8 0
-12 5 -9 10 3 6 10 10 16 10 5 0 9 -4 9 -10z m152 -22 c-5 -21 -6 -21 -12 -2
-8 21 -3 37 10 29 4 -3 6 -15 2 -27z m553 12 c3 -5 -1 -10 -10 -10 -9 0 -13 5
-10 10 3 6 8 10 10 10 2 0 7 -4 10 -10z m165 -11 c0 -6 -4 -7 -10 -4 -5 3 -10
11 -10 16 0 6 5 7 10 4 6 -3 10 -11 10 -16z m-8290 -4 c-7 -8 -19 -15 -26 -15
-8 0 -11 6 -8 15 4 8 15 15 26 15 17 0 18 -3 8 -15z m8215 6 c3 -5 1 -12 -5
-16 -5 -3 -10 1 -10 9 0 18 6 21 15 7z m-1015 -38 c0 -7 -8 -13 -17 -14 -13 0
-11 -3 7 -11 16 -6 20 -12 12 -15 -7 -3 -22 3 -32 12 -18 16 -18 19 -2 40 17
23 31 17 32 -12z m-7368 5 c-7 -7 -12 -8 -12 -2 0 14 12 26 19 19 2 -3 -1 -11
-7 -17z m238 3 c0 -6 -5 -13 -10 -16 -6 -4 -8 -11 -5 -16 4 -5 1 -9 -4 -9 -12
0 -15 33 -4 43 9 10 23 8 23 -2z m7897 -23 c-3 -7 -5 -2 -5 12 0 14 2 19 5 13
2 -7 2 -19 0 -25z m-139 4 c2 -7 -5 -12 -17 -12 -14 0 -19 5 -14 15 6 17 25
15 31 -3z m-7524 0 c3 -5 -1 -9 -9 -9 -8 0 -12 4 -9 9 3 4 7 8 9 8 2 0 6 -4 9
-8z m68 -24 c-7 -7 -12 -8 -12 -2 0 14 12 26 19 19 2 -3 -1 -11 -7 -17z
m-1082 -8 c0 -5 -5 -10 -11 -10 -5 0 -7 5 -4 10 3 6 8 10 11 10 2 0 4 -4 4
-10z m8450 6 c0 -3 -4 -8 -10 -11 -5 -3 -10 -1 -10 4 0 6 5 11 10 11 6 0 10
-2 10 -4z m-8296 -15 c3 -5 -1 -14 -9 -21 -8 -7 -15 -9 -15 -5 0 5 -9 0 -20
-10 -11 -10 -20 -15 -20 -10 0 4 -7 2 -15 -5 -8 -7 -22 -9 -32 -5 -10 4 -29 8
-43 9 -16 1 -26 8 -28 20 -3 16 0 18 21 12 14 -3 29 -2 32 4 3 5 18 10 33 9
24 0 25 -1 7 -9 -16 -6 -17 -9 -5 -13 27 -10 52 -4 63 15 13 20 23 23 31 9z
m86 -43 c0 -17 32 -7 37 12 6 21 18 26 27 11 3 -5 -1 -14 -9 -21 -8 -7 -13
-22 -11 -34 2 -11 1 -15 -1 -8 -4 11 -30 17 -60 13 -18 -2 -24 15 -17 45 7 26
8 26 20 9 8 -11 14 -22 14 -27z m7990 7 c-12 -15 -14 -15 -23 1 -6 11 -5 19 4
25 21 12 35 -7 19 -26z m180 28 c0 -16 -19 -37 -26 -30 -16 16 -12 37 7 37 10
0 19 -3 19 -7z m150 -3 c0 -5 -4 -10 -10 -10 -5 0 -10 5 -10 10 0 6 5 10 10
10 6 0 10 -4 10 -10z m-7470 -4 c0 -3 -4 -8 -10 -11 -5 -3 -10 -1 -10 4 0 6 5
11 10 11 6 0 10 -2 10 -4z m-714 -33 c-10 -10 -19 5 -10 18 6 11 8 11 12 0 2
-7 1 -15 -2 -18z m7934 7 c0 -5 -5 -10 -11 -10 -5 0 -7 5 -4 10 3 6 8 10 11
10 2 0 4 -4 4 -10z m-8149 -15 c0 -5 -12 -11 -26 -13 -18 -2 -25 1 -25 13 0
12 7 15 25 13 14 -2 26 -7 26 -13z m1285 -3 c-3 -3 -1 -11 6 -19 12 -15 5 -28
-11 -18 -6 3 -11 17 -11 31 0 15 4 23 11 19 6 -4 8 -10 5 -13z m66 8 c12 0 18
-3 14 -7 -13 -14 -39 -11 -55 5 -15 15 -15 15 2 9 10 -4 28 -7 39 -7z m91 -18
c-3 -12 -9 -19 -14 -16 -5 3 -4 14 2 25 13 26 20 21 12 -9z m-1143 8 c0 -5 -2
-10 -4 -10 -3 0 -8 5 -11 10 -3 6 -1 10 4 10 6 0 11 -4 11 -10z m910 0 c0 -5
-5 -10 -11 -10 -5 0 -7 5 -4 10 3 6 8 10 11 10 2 0 4 -4 4 -10z m6797 4 c-3
-3 -12 -4 -19 -1 -8 3 -5 6 6 6 11 1 17 -2 13 -5z m-7636 -34 c5 0 9 -4 9 -10
0 -5 -6 -10 -14 -10 -17 0 -29 27 -19 43 5 8 9 6 11 -5 2 -10 8 -18 13 -18z
m1179 15 c7 -8 9 -15 4 -15 -5 0 -2 -5 6 -10 11 -8 8 -9 -12 -4 -22 5 -27 2
-30 -18 -4 -22 -5 -22 -12 4 -14 50 15 78 44 43z m-1345 -5 c3 -5 -1 -10 -9
-10 -9 0 -16 5 -16 10 0 6 4 10 9 10 6 0 13 -4 16 -10z m1415 6 c0 -2 -7 -6
-15 -10 -8 -3 -15 -1 -15 4 0 6 7 10 15 10 8 0 15 -2 15 -4z m63 -10 c6 -16
-2 -28 -14 -20 -12 7 -11 34 0 34 5 0 11 -6 14 -14z m-1244 -23 c0 -25 -1 -26
-9 -8 -12 27 -12 35 0 35 6 0 10 -12 9 -27z m66 17 c3 -5 1 -10 -4 -10 -6 0
-11 5 -11 10 0 6 2 10 4 10 3 0 8 -4 11 -10z m7275 0 c0 -5 -5 -10 -11 -10 -5
0 -7 5 -4 10 3 6 8 10 11 10 2 0 4 -4 4 -10z m-7185 -10 c4 -6 -7 -10 -27 -9
-27 0 -30 2 -13 9 27 12 33 12 40 0z m160 -47 c-5 -10 -9 -21 -9 -25 -1 -5 -5
-8 -11 -8 -12 -1 -19 45 -10 68 5 14 7 14 22 0 10 -11 13 -23 8 -35z m60 17
c-3 -5 -14 -10 -23 -9 -14 0 -13 2 3 9 27 11 27 11 20 0z m-135 -30 c0 -14
-28 -19 -33 -5 -3 7 -3 15 0 18 7 7 33 -3 33 -13z m-340 -56 c0 -8 -5 -12 -10
-9 -6 4 -8 11 -5 16 9 14 15 11 15 -7z m90 -43 c0 -10 -7 -24 -15 -31 -12 -10
-14 -7 -12 19 2 33 27 44 27 12z m9680 -16 c-16 -19 -26 -19 -34 0 -4 10 2 19
17 24 26 10 35 -3 17 -24z m-9536 16 c3 -5 -2 -15 -12 -22 -15 -12 -16 -12 -5
2 7 9 10 19 6 22 -3 4 -4 7 0 7 3 0 8 -4 11 -9z m149 -16 c0 -6 -7 -11 -16
-13 -12 -3 -15 1 -11 13 7 17 25 17 27 0z m5255 0 c-11 -11 -48 -13 -48 -3 0
5 7 8 15 5 8 -4 17 -2 21 4 3 6 9 8 12 5 3 -3 3 -8 0 -11z m-5182 -31 c-3 -9
-6 -22 -6 -30 0 -8 -4 -14 -10 -14 -11 0 -14 43 -3 53 12 13 25 7 19 -9z m84
1 c0 -2 -7 -8 -15 -15 -12 -10 -15 -10 -15 2 0 8 7 15 15 15 8 0 15 -1 15 -2z
m9437 -10 c0 -10 -4 -12 -12 -5 -7 5 -15 7 -18 3 -4 -3 -7 -1 -7 5 0 7 8 12
18 12 10 0 19 -7 19 -15z m-10457 -10 c0 -8 -4 -15 -9 -15 -13 0 -22 16 -14
24 11 11 23 6 23 -9z m10645 -15 c-10 -11 -22 -17 -27 -14 -12 8 11 34 30 34
13 0 12 -3 -3 -20z m-10565 -15 c0 -25 -14 -33 -25 -15 -3 6 0 10 7 11 10 0
10 2 1 6 -18 7 -16 23 2 23 9 0 15 -9 15 -25z m61 -8 c-8 -8 -11 -7 -11 4 0
20 13 34 18 19 3 -7 -1 -17 -7 -23z m1182 17 c3 -4 -1 -13 -9 -21 -18 -18 -27
-13 -18 11 6 17 16 20 27 10z m9037 2 c0 -3 -4 -8 -10 -11 -5 -3 -10 -1 -10 4
0 6 5 11 10 11 6 0 10 -2 10 -4z m-10120 -30 c0 -8 -4 -18 -10 -21 -5 -3 -10
1 -10 9 0 8 -8 17 -17 19 -11 3 -7 5 10 6 17 1 27 -4 27 -13z m148 -3 c-5 -25
-28 -28 -28 -4 0 12 6 21 16 21 9 0 14 -7 12 -17z m1094 -5 c5 -13 -14 -38
-29 -38 -4 0 -8 11 -8 25 0 26 30 36 37 13z m9068 0 c0 -4 -7 -8 -15 -8 -8 0
-15 4 -15 8 0 5 7 9 15 9 8 0 15 -4 15 -9z m422 -33 c-4 -5 -8 -2 -10 8 -3 14
-10 17 -25 13 -21 -5 -21 -4 -3 9 17 13 21 12 32 -3 7 -9 9 -21 6 -27z m-312
29 c0 -8 -19 -13 -24 -6 -3 5 1 9 9 9 8 0 15 -2 15 -3z m-10200 -18 c0 -8 -6
-16 -14 -19 -12 -5 -14 6 -7 31 3 9 21 -1 21 -12z m1170 4 c0 -5 -7 -10 -15
-10 -8 0 -15 5 -15 10 0 6 7 10 15 10 8 0 15 -4 15 -10z m9123 -7 c-7 -2 -21
-2 -30 0 -10 3 -4 5 12 5 17 0 24 -2 18 -5z m414 -5 c18 -29 3 -59 -26 -51
-19 5 -35 39 -25 55 8 12 42 10 51 -4z m-10867 -8 c0 -5 -2 -10 -4 -10 -3 0
-8 5 -11 10 -3 6 -1 10 4 10 6 0 11 -4 11 -10z m1620 -7 c0 -5 -5 -15 -10 -23
-8 -12 -10 -11 -10 8 0 12 5 22 10 22 6 0 10 -3 10 -7z m9320 -3 c0 -5 -5 -10
-11 -10 -5 0 -7 5 -4 10 3 6 8 10 11 10 2 0 4 -4 4 -10z m146 -15 c4 -14 3
-29 0 -33 -9 -8 -26 18 -26 41 0 26 19 20 26 -8z m174 9 c0 -8 -4 -12 -10 -9
-5 3 -10 10 -10 16 0 5 5 9 10 9 6 0 10 -7 10 -16z m-10034 -21 c-10 -10 -19
5 -10 18 6 11 8 11 12 0 2 -7 1 -15 -2 -18z m-679 -10 c-9 -20 -13 -23 -15
-10 -2 10 -8 15 -13 12 -5 -4 -9 1 -9 9 0 10 9 16 25 16 23 0 24 -2 12 -27z
m10403 -31 c0 -2 -7 1 -15 8 -8 7 -15 9 -15 5 0 -4 -7 -2 -15 5 -8 7 -15 19
-15 26 0 9 11 5 30 -13 17 -14 30 -28 30 -31z m90 48 c0 -5 -5 -10 -11 -10 -5
0 -7 5 -4 10 3 6 8 10 11 10 2 0 4 -4 4 -10z m-10417 -30 c-3 -11 -12 -25 -20
-32 -12 -10 -14 -7 -10 23 3 19 6 35 6 36 1 1 7 0 15 -3 8 -3 12 -13 9 -24z
m1094 14 c-3 -3 -12 -4 -19 -1 -8 3 -5 6 6 6 11 1 17 -2 13 -5z m-1144 -29
c-7 -21 -13 -19 -13 6 0 11 4 18 10 14 5 -3 7 -12 3 -20z m117 21 c0 -3 -4 -8
-10 -11 -5 -3 -10 -1 -10 4 0 6 5 11 10 11 6 0 10 -2 10 -4z m1170 -26 c0 -10
-7 -21 -16 -24 -12 -5 -15 -2 -10 10 3 8 6 22 6 30 0 9 5 12 10 9 6 -3 10 -14
10 -25z m150 10 c0 -14 -7 -20 -22 -20 -20 0 -21 1 -3 20 10 11 20 20 22 20 1
0 3 -9 3 -20z m-1490 4 c0 -8 -19 -13 -24 -6 -3 5 1 9 9 9 8 0 15 -2 15 -3z
m254 -10 c5 -14 4 -15 -9 -4 -17 14 -19 20 -6 20 5 0 12 -7 15 -16z m4383 1
c0 -6 -15 -11 -32 -11 -17 0 -32 5 -32 11 0 6 15 11 32 11 17 0 32 -5 32 -11z
m-4237 -10 c0 -8 -2 -15 -4 -15 -2 0 -6 7 -10 15 -3 8 -1 15 4 15 6 0 10 -7
10 -15z m10206 1 c19 -20 18 -25 -6 -19 -11 3 -20 12 -20 19 0 18 8 18 26 0z
m-10056 -11 c10 -12 10 -15 -4 -15 -9 0 -16 7 -16 15 0 8 2 15 4 15 2 0 9 -7
16 -15z m9990 5 c0 -5 -5 -10 -11 -10 -5 0 -7 5 -4 10 3 6 8 10 11 10 2 0 4
-4 4 -10z m110 -5 c0 -8 -4 -15 -10 -15 -5 0 -10 7 -10 15 0 8 5 15 10 15 6 0
10 -7 10 -15z m203 -5 c-3 -11 -7 -20 -8 -20 -1 0 -5 9 -8 20 -3 12 0 20 8 20
8 0 11 -8 8 -20z m-9283 6 c0 -11 -19 -15 -25 -6 -3 5 1 10 9 10 9 0 16 -2 16
-4z m62 -18 c-7 -7 -12 -8 -12 -2 0 14 12 26 19 19 2 -3 -1 -11 -7 -17z m8162
1 c-3 -5 -10 -7 -15 -3 -5 3 -7 10 -3 15 3 5 10 7 15 3 5 -3 7 -10 3 -15z
m1576 8 c0 -8 -3 -17 -6 -20 -10 -9 -46 12 -39 24 9 14 45 11 45 -4z m-11914
-24 c-10 -10 -19 5 -10 18 6 11 8 11 12 0 2 -7 1 -15 -2 -18z m860 -10 c-11
-11 -19 6 -11 24 8 17 8 17 12 0 3 -10 2 -21 -1 -24z m10428 28 c3 -5 -3 -11
-14 -14 -13 -3 -20 0 -20 9 0 15 26 19 34 5z m84 -16 c10 -22 10 -23 -11 -16
-25 9 -36 41 -14 41 7 0 19 -11 25 -25z m196 3 c-9 -31 -12 -34 -25 -21 -15
15 -4 43 16 43 12 0 15 -6 9 -22z m36 12 c0 -5 -5 -10 -11 -10 -5 0 -7 5 -4
10 3 6 8 10 11 10 2 0 4 -4 4 -10z m-11446 -41 c-8 -13 -24 -1 -24 18 0 13 3
13 15 3 8 -7 12 -16 9 -21z m1176 17 c0 -16 -18 -31 -27 -22 -8 8 5 36 17 36
5 0 10 -6 10 -14z m764 -1 c3 -8 1 -15 -4 -15 -6 0 -10 7 -10 15 0 8 2 15 4
15 2 0 6 -7 10 -15z m9572 -1 c-3 -9 -6 -25 -6 -35 0 -12 -4 -17 -11 -14 -6 4
-8 9 -5 12 2 3 1 16 -4 29 -8 21 -7 24 11 24 15 0 19 -5 15 -16z m-11428 -11
c-2 -10 -10 -18 -18 -18 -8 0 -16 8 -18 18 -2 12 3 17 18 17 15 0 20 -5 18
-17z m1009 11 c-3 -3 -12 -4 -19 -1 -8 3 -5 6 6 6 11 1 17 -2 13 -5z m10554
-4 c22 0 25 -25 5 -45 -20 -21 -56 -7 -56 20 0 13 -6 26 -12 28 -7 2 0 3 16 1
16 -2 37 -4 47 -4z m91 -40 c4 -41 -5 -48 -32 -29 -11 8 -12 12 -2 16 6 2 12
18 12 34 0 43 17 26 22 -21z m-11992 19 c0 -11 -4 -17 -10 -14 -5 3 -10 13
-10 21 0 8 5 14 10 14 6 0 10 -9 10 -21z m12083 7 c8 -20 -20 -43 -35 -28 -8
8 -8 15 2 27 16 19 26 19 33 1z m-11903 -21 c0 -8 -7 -15 -15 -15 -8 0 -15 7
-15 15 0 8 7 15 15 15 8 0 15 -7 15 -15z m10660 -1 c0 -8 -5 -12 -10 -9 -6 4
-8 11 -5 16 9 14 15 11 15 -7z m-9124 -10 c-3 -9 -6 -19 -6 -24 0 -12 -33 -7
-45 7 -5 6 -19 14 -30 17 -11 2 -3 3 18 1 20 -1 40 1 43 6 9 16 26 10 20 -7z
m-1396 -10 c0 -8 -4 -12 -10 -9 -5 3 -10 10 -10 16 0 5 5 9 10 9 6 0 10 -7 10
-16z m1488 -4 c2 -10 -5 -16 -18 -16 -13 0 -20 7 -20 19 0 22 33 20 38 -3z
m10312 -16 c0 -19 -16 -18 -24 2 -11 27 -7 37 9 24 8 -7 15 -19 15 -26z m70
22 c13 -17 10 -61 -5 -61 -5 0 -11 12 -13 28 -2 15 -8 27 -13 27 -5 0 -9 5 -9
10 0 15 26 12 40 -4z m-11720 0 c0 -3 -4 -8 -10 -11 -5 -3 -10 -1 -10 4 0 6 5
11 10 11 6 0 10 -2 10 -4z m165 -6 c3 -5 1 -10 -4 -10 -6 0 -11 5 -11 10 0 6
2 10 4 10 3 0 8 -4 11 -10z m9800 -10 c-3 -5 -13 -6 -21 -3 -12 4 -13 8 -3 14
15 9 32 2 24 -11z m321 -26 c-3 -8 -10 -14 -16 -14 -9 0 -9 23 -1 60 1 3 6 -3
12 -13 6 -10 8 -25 5 -33z m-9209 14 c-3 -8 -6 -5 -6 6 -1 11 2 17 5 13 3 -3
4 -12 1 -19z m335 -4 c-2 -10 -9 -22 -15 -26 -15 -9 -27 34 -13 44 17 12 31 3
28 -18z m-234 -5 c-19 -13 -28 -11 -28 5 0 9 7 12 21 9 16 -4 17 -8 7 -14z
m300 9 c-2 -6 -10 -14 -16 -16 -7 -2 -10 2 -6 12 7 18 28 22 22 4z m82 2 c0
-5 -7 -10 -15 -10 -8 0 -15 5 -15 10 0 6 7 10 15 10 8 0 15 -4 15 -10z m-1475
-10 c-3 -5 -10 -10 -16 -10 -5 0 -9 5 -9 10 0 6 7 10 16 10 8 0 12 -4 9 -10z
m78 -10 c-3 -11 -9 -20 -14 -20 -10 0 -12 24 -2 33 13 13 21 7 16 -13z m146 3
c-7 -10 -15 -20 -16 -22 -2 -2 -3 5 -3 17 0 14 6 22 16 22 14 0 15 -3 3 -17z
m10064 -29 c-7 -18 -27 -13 -31 9 -2 11 2 14 17 10 12 -3 17 -11 14 -19z
m-9753 -19 c0 -14 -4 -25 -10 -25 -5 0 -9 11 -8 25 1 14 6 25 10 25 4 0 8 -11
8 -25z m70 10 c0 -8 -7 -15 -15 -15 -9 0 -12 6 -9 15 4 8 10 15 15 15 5 0 9
-7 9 -15z m17 -27 c-3 -7 -5 -2 -5 12 0 14 2 19 5 13 2 -7 2 -19 0 -25z m853
22 c0 -5 -4 -10 -10 -10 -5 0 -10 5 -10 10 0 6 5 10 10 10 6 0 10 -4 10 -10z
m9195 0 c-3 -5 -10 -10 -16 -10 -5 0 -9 5 -9 10 0 6 7 10 16 10 8 0 12 -4 9
-10z m-9999 -9 c8 7 14 7 19 -1 7 -11 -34 -31 -47 -23 -5 2 -8 12 -8 21 0 12
3 13 12 4 8 -8 15 -8 24 -1z m9944 -5 c0 -3 -4 -8 -10 -11 -5 -3 -10 -1 -10 4
0 6 5 11 10 11 6 0 10 -2 10 -4z m286 -11 c19 -14 18 -14 -3 -15 -16 0 -23 -6
-23 -19 0 -24 -11 -32 -28 -22 -9 6 -10 15 -1 39 12 35 25 39 55 17z m88 -12
c-26 -19 -50 -18 -35 1 7 8 21 14 32 13 19 -1 19 -2 3 -14z m-11004 -14 c0 -5
-4 -9 -10 -9 -5 0 -10 7 -10 16 0 8 5 12 10 9 6 -3 10 -10 10 -16z m10790 -10
c0 -5 -4 -9 -10 -9 -5 0 -10 7 -10 16 0 8 5 12 10 9 6 -3 10 -10 10 -16z m310
1 c0 -5 -4 -10 -10 -10 -5 0 -10 5 -10 10 0 6 5 10 10 10 6 0 10 -4 10 -10z
m-82 -28 c2 -7 -3 -12 -12 -12 -9 0 -16 7 -16 16 0 17 22 14 28 -4z m112 -17
c0 -7 -9 -15 -20 -18 -16 -4 -20 0 -20 18 0 18 4 22 20 18 11 -3 20 -11 20
-18z m-11234 -22 c-11 -11 -19 6 -11 24 8 17 8 17 12 0 3 -10 2 -21 -1 -24z
m104 16 c0 -12 -19 -21 -30 -14 -6 4 -8 10 -6 14 7 10 36 10 36 0z m70 -15 c0
-8 -4 -14 -10 -14 -5 0 -10 9 -10 21 0 11 5 17 10 14 6 -3 10 -13 10 -21z
m142 -6 c-6 -6 -16 -7 -23 -3 -9 6 -7 12 7 22 21 15 34 -1 16 -19z m11188 -20
c0 -10 -4 -18 -10 -18 -15 0 -28 31 -22 53 5 19 6 19 19 2 7 -11 13 -27 13
-37z m25 42 c3 -5 1 -10 -4 -10 -6 0 -11 5 -11 10 0 6 2 10 4 10 3 0 8 -4 11
-10z m-10975 -25 c0 -8 -7 -15 -15 -15 -9 0 -12 6 -9 15 4 8 10 15 15 15 5 0
9 -7 9 -15z m10750 -4 c0 -6 -4 -13 -10 -16 -5 -3 -10 1 -10 9 0 9 5 16 10 16
6 0 10 -4 10 -9z m-10835 -10 c3 -5 2 -12 -3 -15 -5 -3 -9 1 -9 9 0 17 3 19
12 6z m248 -8 c2 -5 -4 -21 -15 -38 l-19 -30 5 35 c2 19 5 36 5 38 2 5 20 1
24 -5z m84 -15 c-2 -7 -11 -13 -20 -13 -9 0 -16 -5 -16 -10 1 -6 4 -9 8 -8 4
1 8 -4 8 -11 0 -7 -6 -13 -13 -13 -7 0 -12 5 -11 11 1 6 -3 10 -9 9 -9 -2 -9
4 0 22 11 26 62 37 53 13z m23 -17 c0 -5 -7 -12 -16 -15 -14 -5 -15 -4 -4 9
14 17 20 19 20 6z m50 1 c0 -4 -9 -13 -20 -20 -18 -11 -20 -10 -20 8 0 13 7
20 20 20 11 0 20 -3 20 -8z m9500 -22 c0 -5 -9 -6 -20 -3 -11 3 -17 9 -15 14
7 10 35 1 35 -11z m-9210 -22 c0 -23 -16 -16 -23 11 -3 14 -1 18 9 14 8 -3 14
-14 14 -25z m-1158 0 c-6 -6 -16 -7 -22 -3 -9 6 -9 9 1 16 17 10 34 0 21 -13z
m10683 -26 c-6 -15 -8 -15 -15 3 -10 28 0 53 12 30 5 -9 7 -24 3 -33z m-9430
18 c24 -26 14 -48 -22 -44 -15 1 -29 2 -30 3 -5 3 20 61 26 61 5 0 16 -9 26
-20z m44 -6 c-14 -18 -24 -11 -15 11 3 9 11 13 16 10 8 -5 7 -11 -1 -21z
m9174 14 c-2 -5 -10 -8 -18 -8 -8 0 -16 3 -18 8 -3 4 5 7 18 7 13 0 21 -3 18
-7z m87 -19 c0 -6 -4 -7 -10 -4 -5 3 -10 11 -10 16 0 6 5 7 10 4 6 -3 10 -11
10 -16z m430 -4 c0 -8 -11 -12 -27 -12 -39 2 -49 21 -15 28 32 6 42 3 42 -16z
m-10847 -7 c-12 -13 -20 -15 -27 -8 -12 12 4 27 29 27 13 0 12 -4 -2 -19z
m10494 0 c-3 -8 -6 -5 -6 6 -1 11 2 17 5 13 3 -3 4 -12 1 -19z m131 -9 c11
-14 9 -16 -13 -11 -21 3 -23 7 -14 18 7 8 12 13 13 12 1 -2 7 -10 14 -19z
m312 17 c0 -2 3 -12 7 -22 5 -14 3 -16 -11 -11 -10 4 -19 1 -22 -8 -13 -33
-29 -3 -18 33 3 11 44 18 44 8z m-10715 -16 c-3 -5 -11 -10 -16 -10 -6 0 -7 5
-4 10 3 6 11 10 16 10 6 0 7 -4 4 -10z m785 -5 c0 -8 -2 -15 -4 -15 -2 0 -6 7
-10 15 -3 8 -1 15 4 15 6 0 10 -7 10 -15z m10001 -15 c5 0 9 -7 9 -15 0 -9 6
-12 15 -9 9 4 15 0 15 -10 0 -18 -15 -22 -25 -6 -3 6 -16 8 -28 6 -12 -1 -16
-1 -9 1 15 5 16 29 2 38 -6 4 -7 12 -3 18 5 8 9 7 11 -5 2 -10 8 -18 13 -18z
m-11104 -2 c-3 -8 -6 -5 -6 6 -1 11 2 17 5 13 3 -3 4 -12 1 -19z m1273 1 c0
-11 -5 -17 -10 -14 -6 4 -7 12 -3 18 4 7 0 6 -10 -2 -10 -7 -17 -9 -17 -3 0
10 15 19 33 21 4 1 7 -8 7 -20z m140 14 c0 -17 -19 -35 -29 -29 -18 12 -12 36
9 36 11 0 20 -3 20 -7z m170 -1 c0 -4 -7 -18 -16 -31 -19 -27 -40 -14 -29 18
6 19 45 31 45 13z m9590 -22 c0 -5 -2 -10 -4 -10 -3 0 -8 5 -11 10 -3 6 -1 10
4 10 6 0 11 -4 11 -10z m382 -2 c-7 -7 -12 -22 -12 -35 0 -13 -4 -23 -10 -23
-10 0 -12 7 -12 35 0 31 3 35 24 35 17 0 19 -3 10 -12z m-11070 -10 c-6 -7
-10 -17 -10 -23 0 -5 -5 -11 -11 -13 -6 -2 -10 7 -9 22 2 18 8 26 21 26 15 0
17 -3 9 -12z m82 -4 c3 -8 10 -12 16 -9 5 3 10 -3 10 -14 0 -12 -4 -21 -10
-21 -5 0 -9 3 -9 8 3 20 -3 23 -18 11 -11 -10 -14 -10 -9 -1 4 7 1 12 -8 12
-9 0 -16 7 -16 15 0 20 36 19 44 -1z m1153 -1 c2 -6 -3 -13 -12 -16 -10 -5
-15 0 -15 14 0 21 21 22 27 2z m89 -9 c-5 -14 -9 -15 -19 -5 -9 9 -9 14 3 21
18 11 24 6 16 -16z m9534 -3 c0 -5 -9 -7 -20 -4 -11 3 -20 7 -20 9 0 2 9 4 20
4 11 0 20 -4 20 -9z m-9405 -21 c3 -5 1 -10 -4 -10 -6 0 -11 5 -11 10 0 6 2
10 4 10 3 0 8 -4 11 -10z"/>
</g>
</svg>
